<svg width="105" height="104" viewBox="0 0 105 104" fill="none" xmlns="http://www.w3.org/2000/svg">
<g clip-path="url(#clip0)">
<path d="M72.4082 1.52368H92.5957C96.3127 1.52368 99.3259 4.53684 99.3259 8.25382V21.7143C99.3259 25.4313 96.3127 28.4444 92.5957 28.4444H89.7944C89.4304 28.4444 89.0762 28.5625 88.7849 28.781L78.4653 36.5207C77.3561 37.3527 75.7733 36.5611 75.7733 35.1746V30.1269C75.7733 29.1976 75.0199 28.4444 74.0908 28.4444H72.4084C68.6914 28.4444 65.6782 25.4313 65.6782 21.7143V8.25382C65.6778 4.53684 68.6912 1.52368 72.4082 1.52368V1.52368Z" fill="#EDF6FF"/>
<path d="M92.5952 1.52368H87.9233C91.6403 1.52368 94.6535 4.53684 94.6535 8.25382V21.7143C94.6535 25.4313 91.6403 28.4446 87.9233 28.4446H92.5952C96.3122 28.4446 99.3254 25.4315 99.3254 21.7143V8.25382C99.3254 4.53684 96.3122 1.52368 92.5952 1.52368V1.52368Z" fill="#D8E2F3"/>
<path d="M84.1124 28.781L75.7725 35.036V35.1747C75.7725 36.5613 77.3554 37.3526 78.4645 36.5208L88.784 28.781C89.0753 28.5626 89.4296 28.4446 89.7936 28.4446H85.1217C84.7579 28.4446 84.4036 28.5626 84.1124 28.781V28.781Z" fill="#D8E2F3"/>
<path d="M52.187 62.0618H55.5503C62.9796 62.0618 69.0023 68.0844 69.0023 75.5139L69.0027 100.795C69.0027 101.724 68.2499 102.477 67.321 102.477H3.42093C2.49224 102.477 1.73926 101.724 1.73926 100.795V75.5143C1.73926 68.085 7.76192 62.0624 15.1914 62.0624L18.5548 62.062H52.187V62.0618Z" fill="#C9DBFD"/>
<path d="M38.7342 82.2407L42.0973 102.477H28.6445L32.0077 82.2407V80.8513H38.7453L38.7342 82.2407Z" fill="#F6E2C1"/>
<path d="M38.7344 82.2404L38.7455 80.8511H34.0737L34.0625 82.2404L37.4256 102.477H42.0975L38.7344 82.2404Z" fill="#FFC278"/>
<path d="M69.0023 75.5137C69.0023 68.0844 62.9796 62.0615 55.5503 62.0615H52.1868H50.8823C58.31 62.0636 64.3304 68.0854 64.3304 75.5135L64.3308 100.795C64.3308 101.724 63.578 102.476 62.6492 102.476H67.321C68.2497 102.476 69.0027 101.724 69.0027 100.795L69.0023 75.5137Z" fill="#AECAFC"/>
<path d="M42.0973 76.6356L38.7342 82.2404H32.0077L28.6445 76.6354V69.4761L35.3708 72.1514L42.0973 69.4761V76.6356Z" fill="#F6E2C1"/>
<path d="M38.7554 70.8053L38.7559 74.4081L34.0562 82.2404H38.7339L42.0971 76.6356V69.4761L38.7554 70.8053Z" fill="#FFC278"/>
<path d="M26.9624 48.8933H43.7785V72.1517H26.9624V48.8933Z" fill="#F6E2C1"/>
<path d="M39.1069 48.8936H43.7788V72.1518H39.1069V48.8936Z" fill="#F2D0AC"/>
<path d="M26.9626 58.6978L18.5547 62.0617L24.5117 76.9534C24.9084 77.9451 26.117 78.3204 27.0057 77.7281L35.3706 72.1517L26.9626 58.6978Z" fill="#EDF6FF"/>
<path d="M43.779 58.6978L52.187 62.0617L46.23 76.9534C45.8333 77.9451 44.6247 78.3204 43.736 77.7281L35.3711 72.1517L43.779 58.6978Z" fill="#EDF6FF"/>
<path d="M52.1869 21.7031H55.5501C57.4074 21.7031 58.9132 23.2089 58.9132 25.0663V31.7928C58.9132 33.6501 57.4074 35.1559 55.5501 35.1559H52.1869H18.5549H15.1918C13.3344 35.1559 11.8286 33.6501 11.8286 31.7928V25.0663C11.8286 23.2089 13.3344 21.7031 15.1918 21.7031H18.5549H52.1869Z" fill="#F6E2C1"/>
<path d="M35.3711 2.13306L18.5552 17.3244L18.5554 35.1563C18.5554 44.4434 26.084 51.9722 35.3713 51.9722C44.6586 51.9722 52.1872 44.4436 52.1872 35.1563V17.3244L35.3711 2.13306Z" fill="#F6E2C1"/>
<path d="M47.5151 13.1038V35.1562C47.5151 43.6503 41.216 50.6693 33.0352 51.807C33.7991 51.9132 34.5781 51.9721 35.3711 51.9721C44.6582 51.9721 52.187 44.4435 52.187 35.1562L52.1872 17.3243L47.5151 13.1038Z" fill="#F2D0AC"/>
<path d="M43.779 1.52368H26.9633C22.3197 1.52368 18.5552 5.2882 18.5552 9.93184L18.5554 18.34H21.9181C23.7755 18.34 25.2813 16.8342 25.2813 14.9767V11.6133H45.4607V14.9767C45.4607 16.8342 46.9665 18.34 48.824 18.34H52.1872V9.93184C52.1872 5.2882 48.4227 1.52368 43.779 1.52368V1.52368Z" fill="#85A3C8"/>
<path d="M43.7788 1.52368H39.1069C43.7506 1.52368 47.5151 5.2882 47.5151 9.93184V18.0757C47.9173 18.2457 48.3597 18.3398 48.8238 18.3398H52.187V9.93184C52.187 5.2882 48.4224 1.52368 43.7788 1.52368V1.52368Z" fill="#6188B8"/>
<path d="M47.3367 60.1211L41.0181 75.9161L43.7359 77.7278C44.6246 78.3203 45.8333 77.9447 46.23 76.953L52.1871 62.0613L47.3367 60.1211Z" fill="#D8E2F3"/>
<path d="M52.2206 102.475H16.8969C15.968 102.475 15.2148 101.722 15.2148 100.793V97.4274C15.2148 96.4981 15.968 95.7449 16.8969 95.7449H52.2206V102.475Z" fill="#FFAC47"/>
<path d="M99.3188 95.7448C101.177 95.7448 102.683 94.2382 102.683 92.3796V55.3652C102.683 53.5066 101.177 52 99.3188 52H52.2206C50.3626 52 48.8564 53.5066 48.8564 55.3652V92.3798C48.8564 94.2384 50.3626 95.745 52.2206 95.745V96.7606H99.3188V95.7448Z" fill="#FFC278"/>
<path d="M99.3188 52H94.647C96.505 52 98.0111 53.5066 98.0111 55.3652V92.3798C98.0111 94.2384 96.505 95.745 94.647 95.745V96.7606H99.3188V95.745C101.177 95.745 102.683 94.2384 102.683 92.3798V55.3652C102.683 53.5066 101.177 52 99.3188 52Z" fill="#FFAC47"/>
<path d="M101.058 102.475H50.4814C49.584 102.475 48.8564 101.747 48.8564 100.85V97.3699C48.8564 96.4725 49.584 95.7449 50.4814 95.7449H101.058C101.955 95.7449 102.683 96.4725 102.683 97.3699V100.85C102.683 101.748 101.955 102.475 101.058 102.475Z" fill="#FFC278"/>
<path d="M101.058 95.7449H96.3999C97.2973 95.7449 98.0249 96.4725 98.0249 97.3699V100.85C98.0249 101.747 97.2973 102.475 96.3999 102.475H101.058C101.956 102.475 102.683 101.747 102.683 100.85V97.3699C102.683 96.4725 101.956 95.7449 101.058 95.7449Z" fill="#FFAC47"/>
<path d="M30.1655 28.4442V26.762C30.1655 25.9204 29.4834 25.2385 28.6421 25.2385C27.8007 25.2385 27.1187 25.9204 27.1187 26.762V28.4442C27.1187 29.2858 27.8007 29.9677 28.6421 29.9677C29.4834 29.9677 30.1655 29.2858 30.1655 28.4442Z" fill="#1F1F1F"/>
<path d="M42.0991 29.9677C42.9405 29.9677 43.6226 29.2858 43.6226 28.4442V26.762C43.6226 25.9204 42.9405 25.2385 42.0991 25.2385C41.2578 25.2385 40.5757 25.9204 40.5757 26.762V28.4442C40.5757 29.2858 41.2578 29.9677 42.0991 29.9677Z" fill="#1F1F1F"/>
<path d="M41.0596 38.0413C41.4809 37.3129 41.2321 36.3809 40.5039 35.9597C39.7757 35.539 38.8435 35.787 38.4223 36.5154C37.7934 37.6025 36.6238 38.2779 35.3703 38.2779C34.1166 38.2779 32.947 37.6025 32.318 36.515C31.8967 35.7866 30.9649 35.538 30.2365 35.9591C29.5081 36.3803 29.2593 37.3123 29.6806 38.0405C30.8524 40.0664 33.0325 41.3248 35.3703 41.3248C37.7081 41.3248 39.888 40.0666 41.0596 38.0413V38.0413Z" fill="#1F1F1F"/>
<path d="M104.207 55.365C104.207 52.6693 102.014 50.4766 99.3189 50.4766H61.9602C61.1189 50.4766 60.4368 51.1585 60.4368 52C60.4368 52.8415 61.1189 53.5234 61.9602 53.5234H99.3189C100.334 53.5234 101.16 54.3495 101.16 55.365V92.3796C101.16 93.3952 100.334 94.2214 99.3189 94.2214H52.2208C51.2057 94.2214 50.38 93.3952 50.38 92.3796V55.365C50.38 54.3495 51.206 53.5234 52.2208 53.5234H55.8662C56.7076 53.5234 57.3897 52.8415 57.3897 52C57.3897 51.1585 56.7076 50.4766 55.8662 50.4766H52.2208C49.5257 50.4766 47.3332 52.6695 47.3332 55.365V58.5104L45.305 57.6987V50.5938C49.9598 47.5828 53.1706 42.5222 53.6516 36.6986H55.5561C58.2511 36.6986 60.4437 34.5057 60.4437 31.8102V25.0796C60.4437 22.384 58.2511 20.191 55.5561 20.191H53.7154V9.93627C53.7154 4.45738 49.259 0 43.7815 0H26.961C21.4833 0 17.0269 4.45738 17.0269 9.93627V20.1908H15.1862C12.4911 20.1908 10.2986 22.3838 10.2986 25.0792V31.8096C10.2986 34.5052 12.4911 36.6982 15.1862 36.6982H17.0909C17.5717 42.5216 20.7823 47.5824 25.4371 50.5934V57.6985L18.2566 60.5721L15.1858 60.5725C6.92633 60.5727 0.206543 67.2941 0.206543 75.5558V87.284C0.206543 88.1256 0.888637 88.8075 1.72998 88.8075C2.57132 88.8075 3.25342 88.1256 3.25342 87.284V75.5558C3.25342 68.9741 8.60637 63.6196 15.186 63.6196L17.5187 63.6194L23.0943 77.5615C23.4548 78.4627 24.1932 79.1448 25.12 79.4326C25.4337 79.5299 25.755 79.5781 26.0743 79.5781C26.6985 79.5781 27.3146 79.3947 27.8488 79.0386L28.1586 78.832L30.4122 82.589L28.474 94.2216H16.8973C15.1297 94.2216 13.6918 95.6597 13.6918 97.4275V100.792C13.6918 100.847 13.6973 100.9 13.6999 100.953H3.41206C3.32451 100.953 3.25342 100.882 3.25342 100.794V93.3778C3.25342 92.5362 2.57132 91.8543 1.72998 91.8543C0.888637 91.8543 0.206543 92.5362 0.206543 93.3778V100.794C0.206543 102.562 1.64446 104 3.41206 104L101.058 103.998C102.794 103.998 104.207 102.586 104.207 100.85V97.3698C104.207 96.5207 103.867 95.7505 103.319 95.1836C103.877 94.3891 104.207 93.4223 104.207 92.3794V55.365ZM42.2685 94.2214L40.3302 82.5888L42.5839 78.832L42.8935 79.0384C43.4277 79.3945 44.0438 79.5779 44.668 79.5779C44.9871 79.5779 45.3086 79.5299 45.6222 79.4324C46.3322 79.212 46.9298 78.7589 47.3334 78.1544V92.3794C47.3334 93.0308 47.4624 93.6524 47.6947 94.2212H42.2685V94.2214ZM47.3332 70.1421L44.8187 76.4298C44.8118 76.4473 44.7904 76.5003 44.7183 76.5227C44.6462 76.5454 44.5991 76.5135 44.5837 76.5032L37.4467 71.7442L44.3986 60.6176L47.3334 61.7918V70.1421H47.3332ZM55.5561 23.2379C56.5711 23.2379 57.3968 24.064 57.3968 25.0796V31.8102C57.3968 32.8256 56.5711 33.6517 55.5561 33.6517H53.7154V23.2379H55.5561ZM26.961 3.04688H43.7815C47.5789 3.04688 50.6685 6.13742 50.6685 9.93627V16.8257H48.828C47.813 16.8257 46.9872 15.9995 46.9872 14.9841V13.1422H47.1463C47.9876 13.1422 48.6697 12.4603 48.6697 11.6188C48.6697 10.7772 47.9876 10.0953 47.1463 10.0953H23.5966C22.7552 10.0953 22.0732 10.7772 22.0732 11.6188C22.0732 12.4603 22.7552 13.1422 23.5966 13.1422H23.755V14.9839C23.755 15.9993 22.9293 16.8255 21.9143 16.8255H20.074V9.93606C20.0738 6.13742 23.1633 3.04688 26.961 3.04688V3.04688ZM13.3455 31.8098V25.0794C13.3455 24.064 14.1712 23.2379 15.1862 23.2379H17.0269V33.6517H15.186C14.1714 33.6515 13.3455 32.8254 13.3455 31.8098V31.8098ZM20.074 35.1752L20.0738 19.8725H21.9141C24.6092 19.8725 26.8017 17.6796 26.8017 14.9841V13.1422H43.9398V14.9839C43.9398 17.6796 46.1325 19.8723 48.8274 19.8723H50.6679V35.175C50.6679 43.6124 43.8055 50.4768 35.3707 50.4768C26.936 50.4768 20.074 43.6126 20.074 35.1752V35.1752ZM35.3711 53.5238C37.8058 53.5238 40.1304 53.0459 42.2581 52.1806V58.2934L35.3711 69.3164L28.484 58.2932V52.1806C30.6117 53.0457 32.9365 53.5238 35.3711 53.5238ZM26.0237 76.5229C25.9516 76.5005 25.9303 76.4475 25.9234 76.43L20.5302 62.9442L26.3437 60.6178L33.2954 71.7444L26.1584 76.5034C26.143 76.5137 26.096 76.5454 26.0237 76.5229V76.5229ZM35.3711 74.0224L40.0461 77.1398L37.8728 80.7627H32.8699L30.6966 77.1396L35.3711 74.0224ZM33.2976 83.8096H37.4448L39.1795 94.2216H31.5627L33.2976 83.8096ZM16.7385 97.4275C16.7385 97.3397 16.8098 97.2684 16.8971 97.2684H47.3382C47.3372 97.3024 47.3332 97.3357 47.3332 97.37V100.85C47.3332 100.884 47.3372 100.918 47.3382 100.952H16.8973C16.8098 100.952 16.7387 100.88 16.7387 100.793V97.4275H16.7385ZM101.16 100.85C101.16 100.906 101.114 100.952 101.058 100.952H52.2208H50.4816C50.4255 100.952 50.38 100.906 50.38 100.85V97.3698C50.38 97.3139 50.4255 97.2682 50.4816 97.2682H52.2208H99.3189H101.058C101.114 97.2682 101.16 97.3139 101.16 97.3698V100.85Z" fill="#1F1F1F"/>
<path d="M57.4253 84.026C57.4253 85.7622 58.8376 87.1745 60.5737 87.1745H90.9653C92.7014 87.1745 94.1137 85.7622 94.1137 84.026V63.7205C94.1137 61.9843 92.7014 60.572 90.9653 60.572H60.5737C58.8376 60.572 57.4253 61.9843 57.4253 63.7205V84.026ZM60.4722 63.7205C60.4722 63.6646 60.5177 63.6189 60.5737 63.6189H90.9653C91.0214 63.6189 91.0669 63.6646 91.0669 63.7205V84.026C91.0669 84.0819 91.0214 84.1276 90.9653 84.1276H60.5737C60.5177 84.1276 60.4722 84.0819 60.4722 84.026V63.7205Z" fill="#1F1F1F"/>
<path d="M72.4056 29.9676H74.0876C74.1752 29.9676 74.2463 30.0391 74.2463 30.1267V35.1745C74.2463 36.397 74.9253 37.4957 76.0187 38.0421C76.476 38.2708 76.9669 38.3833 77.455 38.3833C78.1337 38.3833 78.8068 38.1656 79.3754 37.739L89.6925 29.9989C89.7195 29.9786 89.753 29.9676 89.787 29.9676H92.5905C97.1405 29.9676 100.842 26.2651 100.842 21.7141V8.25378C100.842 3.70277 97.1405 0 92.5905 0H72.4056C67.8556 0 64.1538 3.70277 64.1538 8.25378V21.7141C64.1538 26.2653 67.8556 29.9676 72.4056 29.9676ZM67.2007 8.25378C67.2007 5.38261 69.5356 3.04688 72.4056 3.04688H92.5905C95.4604 3.04688 97.7954 5.38261 97.7954 8.25378V21.7141C97.7954 24.585 95.4604 26.9208 92.5905 26.9208H89.787C89.0974 26.9208 88.4142 27.1487 87.8636 27.5622L77.5469 35.3017C77.5215 35.3208 77.4685 35.3602 77.3811 35.3165C77.2932 35.2727 77.2932 35.2062 77.2932 35.1743V30.1263C77.2929 28.3587 75.8548 26.9206 74.0876 26.9206H72.4056C69.5356 26.9206 67.2007 24.5848 67.2007 21.7139V8.25378Z" fill="#1F1F1F"/>
<path d="M72.4058 9.77734H92.5907C93.432 9.77734 94.1141 9.09545 94.1141 8.25391C94.1141 7.41236 93.432 6.73047 92.5907 6.73047H72.4058C71.5644 6.73047 70.8823 7.41236 70.8823 8.25391C70.8823 9.09545 71.5644 9.77734 72.4058 9.77734Z" fill="#1F1F1F"/>
<path d="M72.4058 16.5073H92.5907C93.432 16.5073 94.1141 15.8254 94.1141 14.9839C94.1141 14.1423 93.432 13.4604 92.5907 13.4604H72.4058C71.5644 13.4604 70.8823 14.1423 70.8823 14.9839C70.8823 15.8254 71.5644 16.5073 72.4058 16.5073Z" fill="#1F1F1F"/>
<path d="M72.4058 23.2375H79.1341C79.9754 23.2375 80.6575 22.5557 80.6575 21.7141C80.6575 20.8726 79.9754 20.1907 79.1341 20.1907H72.4058C71.5644 20.1907 70.8823 20.8726 70.8823 21.7141C70.8823 22.5557 71.5644 23.2375 72.4058 23.2375Z" fill="#1F1F1F"/>
</g>
<defs>
<clipPath id="clip0">
<rect width="104" height="104" fill="white" transform="translate(0.206543)"/>
</clipPath>
</defs>
</svg>
