<svg width="104" height="104" viewBox="0 0 104 104" fill="none" xmlns="http://www.w3.org/2000/svg">
<g clip-path="url(#clip0)">
<path d="M40.2212 80.6416H63.7768V97.3897H40.2212V80.6416Z" fill="#6188B8"/>
<path d="M59.105 80.6416H63.7769V97.3897H59.105V80.6416Z" fill="#6C626F"/>
<path d="M1.52246 70.6213V75.5561C1.52246 79.273 4.53562 82.286 8.2526 82.286H95.745C99.462 82.286 102.475 79.2728 102.475 75.5561V70.6213H1.52246Z" fill="#EDF6FF"/>
<path d="M97.8034 70.6213V75.5561C97.8034 79.273 94.7902 82.286 91.0732 82.286H95.7451C99.4621 82.286 102.475 79.2728 102.475 75.5561V70.6213H97.8034Z" fill="#D8E2F3"/>
<path d="M102.475 72.1901V14.9836C102.475 11.2666 99.462 8.25342 95.745 8.25342H89.0151H48.6339H8.2526C4.53562 8.25342 1.52246 11.2666 1.52246 14.9836V72.1901H102.475Z" fill="#FFC278"/>
<path d="M95.7453 72.19V16.6664C95.7453 15.7371 94.9919 14.9839 94.0628 14.9839H9.93493C9.00563 14.9839 8.25244 15.7373 8.25244 16.6664V72.19H95.7453Z" fill="#C9DBFD"/>
<path d="M95.7451 8.25342H91.0732C94.7902 8.25342 97.8034 11.2666 97.8034 14.9836V72.1901H102.475V14.9836C102.475 11.2666 99.4621 8.25342 95.7451 8.25342V8.25342Z" fill="#FFAC47"/>
<path d="M94.0629 14.9839H89.3906C90.3199 14.9839 91.0731 15.7373 91.0731 16.6664V72.19H95.7454V16.6664C95.7454 15.7371 94.9922 14.9839 94.0629 14.9839V14.9839Z" fill="#AECAFC"/>
<path d="M73.9298 95.7463H30.0684C29.171 95.7463 28.4434 96.4739 28.4434 97.3713V100.851C28.4434 101.749 29.171 102.476 30.0684 102.476H73.9298C74.8272 102.476 75.5548 101.749 75.5548 100.851V97.3713C75.5548 96.4739 74.8272 95.7463 73.9298 95.7463Z" fill="#85A3C8"/>
<path d="M73.9298 95.7463H30.0684C29.171 95.7463 28.4434 96.4739 28.4434 97.3713V100.851C28.4434 101.749 29.171 102.476 30.0684 102.476H73.9298C74.8272 102.476 75.5548 101.749 75.5548 100.851V97.3713C75.5548 96.4739 74.8272 95.7463 73.9298 95.7463Z" fill="#85A3C8"/>
<path d="M73.9297 95.7463H69.2578C70.1552 95.7463 70.8828 96.4739 70.8828 97.3713V100.851C70.8828 101.749 70.1552 102.476 69.2578 102.476H73.9297C74.8271 102.476 75.5547 101.749 75.5547 100.851V97.3713C75.5547 96.4739 74.8271 95.7463 73.9297 95.7463Z" fill="#6188B8"/>
<path d="M82.2852 1.52344H55.3644C51.6474 1.52344 48.6343 4.53659 48.6343 8.25358V30.1267C48.6343 32.9144 50.8942 35.1743 53.6819 35.1743C54.6112 35.1743 55.3644 35.9277 55.3644 36.8568V41.2076C55.3644 42.7066 57.1767 43.4572 58.2368 42.3973L64.9669 35.6671C65.2824 35.3517 65.7104 35.1743 66.1567 35.1743H82.2852C86.0022 35.1743 89.0153 32.1612 89.0153 28.4442V8.25358C89.0153 4.53659 86.0022 1.52344 82.2852 1.52344V1.52344Z" fill="#EDF6FF"/>
<path d="M60.2949 35.6671L55.3643 40.5978V41.2075C55.3643 42.7066 57.1765 43.4571 58.2367 42.3972L64.9668 35.6671C65.2822 35.3516 65.7102 35.1743 66.1565 35.1743H61.4846C61.0384 35.1743 60.6104 35.3516 60.2949 35.6671Z" fill="#D8E2F3"/>
<path d="M82.2852 1.52344H77.6133C81.3303 1.52344 84.3434 4.53659 84.3434 8.25358V28.4442C84.3434 32.1612 81.3301 35.1743 77.6133 35.1743H82.2852C86.0021 35.1743 89.0153 32.1612 89.0153 28.4442V8.25358C89.0153 4.53659 86.0021 1.52344 82.2852 1.52344V1.52344Z" fill="#D8E2F3"/>
<path d="M65.1524 63.6216C65.9832 61.9582 65.3082 59.9363 63.6448 59.1056C61.9814 58.2748 59.9595 58.9498 59.1287 60.6132C58.298 62.2766 58.973 64.2985 60.6363 65.1292C62.2997 65.96 64.3216 65.285 65.1524 63.6216Z" fill="#EDF6FF"/>
<path d="M29.75 48.2637H33.8667V56.998H29.75V48.2637Z" fill="#F2CDBE"/>
<path d="M41.904 27.6685V42.5356C41.904 48.1684 37.2906 52.7239 31.636 52.6295C26.1007 52.537 21.7134 47.9056 21.7134 42.3694V27.6685H41.904Z" fill="#F6E2C1"/>
<path d="M37.232 27.6685V42.5356C37.232 47.3021 33.9282 51.2964 29.4858 52.3553C30.1773 52.5212 30.8959 52.6171 31.6361 52.6295C37.2905 52.7239 41.9039 48.1684 41.9039 42.5356V27.6685H37.232Z" fill="#F2D0AC"/>
<path d="M36.8562 22.345H26.7609C23.0439 22.345 20.0308 25.3581 20.0308 29.0751V34.1228C20.0308 35.0521 20.7842 35.8053 21.7132 35.8053C24.9693 35.8053 27.6853 33.4929 28.3089 30.4208C28.468 29.6376 29.1566 29.0749 29.9557 29.0749H33.6615C34.4608 29.0749 35.1494 29.6376 35.3082 30.4208C35.9318 33.4929 38.6478 35.8053 41.9039 35.8053C42.8332 35.8053 43.5864 35.0519 43.5864 34.1228V29.0751C43.5864 25.3581 40.5732 22.345 36.8562 22.345V22.345Z" fill="#85A3C8"/>
<path d="M36.8564 22.345H32.1846C35.9016 22.345 38.9147 25.3581 38.9147 29.0751V34.1228C38.9147 34.4368 38.8272 34.7295 38.6775 34.9812C39.6356 35.5058 40.7347 35.8053 41.9041 35.8053C42.8334 35.8053 43.5866 35.0519 43.5866 34.1228V29.0751C43.5866 25.3581 40.5734 22.345 36.8564 22.345V22.345Z" fill="#6188B8"/>
<path d="M48.634 60.2023C48.634 56.0208 45.2441 52.6309 41.0625 52.6309H22.5544C18.3729 52.6309 14.9829 56.0208 14.9829 60.2023V62.7262C14.9829 64.5848 16.4895 66.0913 18.3481 66.0913H45.2688C47.1272 66.0913 48.634 64.5848 48.634 62.7262V60.2023Z" fill="#85A3C8"/>
<path d="M41.0625 52.6309H36.4414C40.6229 52.6309 44.0129 56.0208 44.0129 60.2023V62.7262C44.0129 64.5848 42.5063 66.0913 40.6477 66.0913H45.2688C47.1272 66.0913 48.634 64.5848 48.634 62.7262V60.2023C48.634 56.0206 45.2442 52.6309 41.0625 52.6309Z" fill="#6188B8"/>
<path d="M36.2954 59.361L32.7836 61.9949C32.2059 62.4282 31.4113 62.4282 30.8336 61.9949L27.3218 59.361V52.6309H36.2954V59.361Z" fill="#F1CB86"/>
<path d="M39.6596 59.5551L42.0873 52.7015C41.752 52.6562 41.4103 52.6306 41.0626 52.6306H31.8086L36.6732 59.9277C37.4421 61.0812 39.1977 60.8621 39.6596 59.5551V59.5551Z" fill="#FFC278"/>
<path d="M21.5308 52.7015L23.9575 59.5551C24.4194 60.8621 26.175 61.081 26.9438 59.9277L31.8085 52.6306H22.5545C22.2072 52.6308 21.8659 52.6562 21.5308 52.7015V52.7015Z" fill="#FFC278"/>
<path d="M41.0628 51.1072H39.6487C39.7519 51.0128 39.855 50.9183 39.9554 50.8198C42.1944 48.6177 43.4276 45.6757 43.4276 42.5354V36.9427C44.4288 36.3998 45.1101 35.3392 45.1101 34.1225V29.0749C45.1101 24.5239 41.4075 20.8213 36.8565 20.8213H26.7612C22.2102 20.8213 18.5076 24.5239 18.5076 29.0749V34.1225C18.5076 35.3392 19.1891 36.3998 20.1903 36.9427V42.3692C20.1903 45.8176 21.6831 48.9423 24.0452 51.1072H22.5549C17.5399 51.1072 13.46 55.1872 13.46 60.2021V62.726C13.46 65.4214 15.6529 67.6144 18.3484 67.6144H45.2691C47.9646 67.6144 50.1577 65.4214 50.1577 62.726V60.2021C50.1577 55.1872 46.0778 51.1072 41.0628 51.1072V51.1072ZM25.6765 59.0829C25.6588 59.1093 25.6223 59.1644 25.5244 59.1526C25.4269 59.1404 25.4047 59.0777 25.394 59.0476L23.6644 54.1543H28.9623L25.6765 59.0829ZM31.8089 55.3771L34.2287 59.007L31.8089 60.8219L29.389 59.007L31.8089 55.3771ZM34.6552 54.1541H39.9532L38.2233 59.0474C38.2128 59.0774 38.1906 59.1402 38.0929 59.1524C37.9948 59.1632 37.9585 59.1091 37.9408 59.0827L34.6552 54.1541ZM21.5543 29.0751C21.5543 26.2041 23.89 23.8684 26.761 23.8684H36.8563C39.7273 23.8684 42.063 26.2041 42.063 29.0751V34.1227C42.063 34.2105 41.9915 34.2818 41.904 34.2818C39.437 34.2818 37.291 32.5306 36.8013 30.1181C36.4996 28.631 35.1791 27.5516 33.6614 27.5516H29.9557C28.4382 27.5516 27.1177 28.631 26.816 30.1179C26.3263 32.5306 24.1803 34.2818 21.7133 34.2818C21.6256 34.2818 21.5541 34.2103 21.5541 34.1227V29.0751H21.5543ZM23.237 42.3694V37.1848C26.4793 36.5722 29.1284 34.0435 29.8022 30.724C29.817 30.6513 29.8816 30.5985 29.9559 30.5985H33.6616C33.7359 30.5985 33.8007 30.6511 33.8153 30.724C34.4891 34.0435 37.1382 36.5722 40.3805 37.1848V42.5356C40.3805 44.8522 39.4707 47.0228 37.8187 48.6476C36.1671 50.272 33.9825 51.1428 31.6614 51.1062C27.0163 51.0286 23.237 47.1093 23.237 42.3694V42.3694ZM47.1109 62.7262C47.1109 63.7416 46.2848 64.5677 45.2691 64.5677H18.3484C17.3329 64.5677 16.5068 63.7416 16.5068 62.7262V60.2024C16.5068 57.5686 18.1995 55.3241 20.5537 54.496L22.5214 60.063C22.9286 61.2149 23.9349 62.0246 25.1474 62.1759C25.2826 62.1928 25.4175 62.2011 25.5516 62.2011C26.3038 62.2011 27.0202 61.9376 27.5885 61.4652L30.8948 63.9449C31.1656 64.1481 31.4873 64.2496 31.8089 64.2496C32.1304 64.2496 32.4522 64.1481 32.7229 63.9449L36.0292 61.4652C36.5975 61.9378 37.3137 62.2011 38.0661 62.2011C38.2 62.2011 38.3351 62.193 38.4703 62.1759C39.6828 62.0246 40.6891 61.2151 41.0963 60.063L43.0642 54.496C45.4184 55.3241 47.1111 57.5686 47.1111 60.2024V62.7262H47.1109Z" fill="#1E1E1E"/>
<path d="M28.4438 41.5352C29.2852 41.5352 29.9673 40.8531 29.9673 40.0118V39.1704C29.9673 38.3291 29.2852 37.647 28.4438 37.647C27.6025 37.647 26.9204 38.3291 26.9204 39.1704V40.0118C26.9204 40.8531 27.6025 41.5352 28.4438 41.5352Z" fill="#1E1E1E"/>
<path d="M35.1743 41.5352C36.0157 41.5352 36.6978 40.8531 36.6978 40.0118V39.1704C36.6978 38.3291 36.0157 37.647 35.1743 37.647C34.333 37.647 33.6509 38.3291 33.6509 39.1704V40.0118C33.6509 40.8531 34.333 41.5352 35.1743 41.5352Z" fill="#1E1E1E"/>
<path d="M103.999 14.9835C103.999 10.4325 100.297 6.73014 95.7458 6.73014H90.3961C89.6793 2.90469 86.3167 0 82.2863 0H55.3642C51.3339 0 47.9714 2.90469 47.2544 6.72994H8.25358C3.70256 6.72994 0.000203125 10.4325 0.000203125 14.9833V32.1275C0.000203125 32.9688 0.682297 33.6509 1.52364 33.6509C2.36498 33.6509 3.04708 32.9688 3.04708 32.1275V14.9835C3.04708 12.1125 5.38281 9.77702 8.25358 9.77702H47.1114V13.4605H9.93586C8.16806 13.4605 6.72994 14.8988 6.72994 16.6666V70.6668H3.04688V38.2214C3.04688 37.3801 2.36478 36.698 1.52344 36.698C0.682094 36.698 0 37.3801 0 38.2214V75.556C0 80.107 3.70256 83.8096 8.25338 83.8096H15.3016C16.143 83.8096 16.825 83.1275 16.825 82.2861C16.825 81.4448 16.143 80.7627 15.3016 80.7627H8.25358C5.38261 80.7627 3.04708 78.427 3.04708 75.556V73.7137H100.953V75.556C100.953 78.427 98.617 80.7627 95.746 80.7627H21.3956C20.5542 80.7627 19.8721 81.4448 19.8721 82.2861C19.8721 83.1275 20.5542 83.8096 21.3956 83.8096H38.6986V94.2232H30.0692C28.3331 94.2232 26.9208 95.6355 26.9208 97.3716V100.852C26.9208 102.588 28.3331 104 30.0692 104H73.9306C75.6667 104 77.079 102.588 77.079 100.852V97.3716C77.079 95.6355 75.6667 94.2232 73.9306 94.2232H65.3012V83.8094H95.746C100.297 83.8094 104 80.1068 104 75.5558V14.9835H103.999ZM74.0322 97.3714V100.851C74.0322 100.907 73.9865 100.953 73.9306 100.953H30.0692C30.0131 100.953 29.9676 100.907 29.9676 100.851V97.3714C29.9676 97.3154 30.0131 97.2699 30.0692 97.2699H73.9306C73.9865 97.2699 74.0322 97.3154 74.0322 97.3714ZM62.2542 94.223H41.7454V83.8094H62.2542V94.223ZM50.1581 8.25297C50.1581 5.38241 52.4934 3.04688 55.3642 3.04688H82.2863C85.1571 3.04688 87.4924 5.3822 87.4924 8.25297V28.4442C87.4924 31.3152 85.1567 33.6509 82.2855 33.6509H66.157C65.3004 33.6509 64.4954 33.9844 63.8901 34.59L57.1598 41.3201C57.1318 41.3481 57.0854 41.395 56.9863 41.3546C56.8882 41.3138 56.8882 41.2474 56.8882 41.2076V36.857C56.8882 35.0892 55.4501 33.6511 53.6823 33.6511C51.7392 33.6511 50.1581 32.0702 50.1581 30.1269V8.25297ZM9.77681 16.6664C9.77681 16.5787 9.84831 16.5072 9.93586 16.5072H47.1114V30.1267C47.1114 33.75 50.0591 36.6978 53.6825 36.6978C53.7702 36.6978 53.8415 36.7693 53.8415 36.8568V41.2076C53.8415 42.5088 54.6183 43.6715 55.8208 44.1695C56.2197 44.3347 56.6373 44.4151 57.0509 44.4151C57.8837 44.4151 58.6997 44.0893 59.3147 43.4744L66.0451 36.7441C66.0747 36.7146 66.1156 36.6978 66.1574 36.6978H82.2859C86.837 36.6978 90.5397 32.9952 90.5397 28.4442V16.5074H94.0641C94.1519 16.5074 94.2232 16.5789 94.2232 16.6666V70.6668H9.77681V16.6664ZM97.2697 70.6666V16.6664C97.2697 14.8986 95.8315 13.4603 94.0637 13.4603H90.5393V9.77681H95.7458C98.6168 9.77681 100.953 12.1123 100.953 14.9833V70.6666H97.2697Z" fill="#1E1E1E"/>
<path d="M89.0157 60.5718H66.7389C66.0971 58.6201 64.2584 57.2068 62.0949 57.2068C59.9314 57.2068 58.0925 58.6203 57.4506 60.5718H55.3647C54.5232 60.5718 53.8413 61.2539 53.8413 62.0952C53.8413 62.9365 54.5232 63.6186 55.3647 63.6186H57.4506C58.0925 65.5703 59.9312 66.9838 62.0949 66.9838C64.2586 66.9838 66.0973 65.5703 66.7389 63.6186H89.0157C89.8572 63.6186 90.5391 62.9365 90.5391 62.0952C90.5391 61.2539 89.8572 60.5718 89.0157 60.5718ZM62.0949 63.9369C61.0793 63.9369 60.2532 63.1108 60.2532 62.0952C60.2532 61.0798 61.0793 60.2537 62.0949 60.2537C63.1103 60.2537 63.9364 61.0798 63.9364 62.0952C63.9364 63.1108 63.1103 63.9369 62.0949 63.9369Z" fill="#1E1E1E"/>
<path d="M55.3647 10.0078H82.2855C83.1271 10.0078 83.8089 9.32572 83.8089 8.48438C83.8089 7.64303 83.1271 6.96094 82.2855 6.96094H55.3647C54.5232 6.96094 53.8413 7.64303 53.8413 8.48438C53.8413 9.32572 54.5234 10.0078 55.3647 10.0078V10.0078Z" fill="#1E1E1E"/>
<path d="M55.3647 16.738H82.2855C83.1271 16.738 83.8089 16.0559 83.8089 15.2146C83.8089 14.3733 83.1271 13.6912 82.2855 13.6912H55.3647C54.5232 13.6912 53.8413 14.3733 53.8413 15.2146C53.8413 16.0559 54.5234 16.738 55.3647 16.738V16.738Z" fill="#1E1E1E"/>
<path d="M55.3647 23.4683H82.2855C83.1271 23.4683 83.8089 22.7862 83.8089 21.9448C83.8089 21.1035 83.1271 20.4214 82.2855 20.4214H55.3647C54.5232 20.4214 53.8413 21.1035 53.8413 21.9448C53.8413 22.7862 54.5234 23.4683 55.3647 23.4683V23.4683Z" fill="#1E1E1E"/>
<path d="M55.3647 30.1985H65.4601C66.3016 30.1985 66.9835 29.5164 66.9835 28.675C66.9835 27.8337 66.3016 27.1516 65.4601 27.1516H55.3647C54.5232 27.1516 53.8413 27.8337 53.8413 28.675C53.8413 29.5164 54.5234 30.1985 55.3647 30.1985Z" fill="#1E1E1E"/>
</g>
<defs>
<clipPath id="clip0">
<rect width="104" height="104" fill="white"/>
</clipPath>
</defs>
</svg>
