<svg width="105" height="104" viewBox="0 0 105 104" fill="none" xmlns="http://www.w3.org/2000/svg">
<g clip-path="url(#clip0)">
<path d="M82.7966 8.25342C86.5136 8.25342 89.5268 11.2666 89.5268 14.9836V95.7461C89.5268 99.463 86.5136 102.476 82.7966 102.476H22.2248C18.5078 102.476 15.4946 99.463 15.4946 95.7461V14.9836C15.4946 11.2666 18.5078 8.25342 22.2248 8.25342H35.6865L52.5113 9.26904L69.3362 8.25342H82.7966Z" fill="#FFC278"/>
<path d="M82.7964 8.25342H78.1245C81.8415 8.25342 84.8547 11.2666 84.8547 14.9836V95.7461C84.8547 99.463 81.8415 102.476 78.1245 102.476H82.7964C86.5134 102.476 89.5265 99.463 89.5265 95.7461V14.9836C89.5267 11.2668 86.5134 8.25342 82.7964 8.25342V8.25342Z" fill="#FFAC47"/>
<path d="M23.9076 14.9839C22.9783 14.9839 22.2251 15.7371 22.2251 16.6664V94.0637C22.2251 94.993 22.9785 95.7462 23.9076 95.7462H81.1143C82.0436 95.7462 82.7968 94.9928 82.7968 94.0637V16.6664C82.7968 15.7371 82.0436 14.9839 81.1143 14.9839H23.9076Z" fill="#EDF6FF"/>
<path d="M81.1138 14.9839H76.4419C77.3712 14.9839 78.1244 15.7371 78.1244 16.6664V94.0637C78.1244 94.993 77.3712 95.7462 76.4419 95.7462H81.1138C82.0431 95.7462 82.7963 94.993 82.7963 94.0637V16.6664C82.7965 15.7371 82.0431 14.9839 81.1138 14.9839V14.9839Z" fill="#D8E2F3"/>
<path d="M60.7534 8.25358C59.9541 8.25358 59.2655 7.69092 59.1067 6.90767C58.4831 3.83561 55.7671 1.52344 52.511 1.52344C49.2549 1.52344 46.5389 3.83561 45.9153 6.90767C45.7563 7.69092 45.0677 8.25358 44.2686 8.25358H35.6855V20.0314C35.6855 20.9607 36.4387 21.7139 37.368 21.7139H67.654C68.5833 21.7139 69.3365 20.9605 69.3365 20.0314V8.25358H60.7534Z" fill="#A7BDD7"/>
<path d="M54.4345 6.90767C54.5934 7.69092 55.2822 8.25358 56.0813 8.25358H60.7531C59.9539 8.25358 59.2653 7.69092 59.1064 6.90767C58.4828 3.83561 55.7668 1.52344 52.5107 1.52344C51.6893 1.52344 50.9026 1.67091 50.1748 1.94025C52.3318 2.73873 53.9682 4.61073 54.4345 6.90767V6.90767Z" fill="#AECAFC"/>
<path d="M64.6639 8.25342V20.0312C64.6639 20.9605 63.9105 21.7137 62.9814 21.7137H67.6533C68.5826 21.7137 69.3358 20.9603 69.3358 20.0312V8.25342H64.6639Z" fill="#AECAFC"/>
<path d="M44.1555 85.651H30.5801C29.6827 85.651 28.9551 84.9234 28.9551 84.026V80.5459C28.9551 79.6485 29.6827 78.9209 30.5801 78.9209H44.1555C45.0529 78.9209 45.7805 79.6485 45.7805 80.5459V84.026C45.7805 84.9234 45.0529 85.651 44.1555 85.651Z" fill="#C9DBFD"/>
<path d="M74.4415 85.6518H54.1357C53.2383 85.6518 52.5107 84.9242 52.5107 84.0268V80.5466C52.5107 79.6492 53.2383 78.9216 54.1357 78.9216H74.4415C75.3389 78.9216 76.0665 79.6492 76.0665 80.5466V84.0268C76.0665 84.9242 75.3389 85.6518 74.4415 85.6518Z" fill="#817D84"/>
<path d="M74.4419 78.9207H69.77C70.6674 78.9207 71.395 79.6482 71.395 80.5457V84.0258C71.395 84.9232 70.6674 85.6508 69.77 85.6508H74.4419C75.3393 85.6508 76.0669 84.9232 76.0669 84.0258V80.5457C76.0669 79.6482 75.3393 78.9207 74.4419 78.9207Z" fill="#756E79"/>
<path d="M44.1553 78.9207H39.4834C40.3808 78.9207 41.1084 79.6482 41.1084 80.5457V84.0258C41.1084 84.9232 40.3808 85.6508 39.4834 85.6508H44.1553C45.0527 85.6508 45.7803 84.9232 45.7803 84.0258V80.5457C45.7803 79.6482 45.0527 78.9207 44.1553 78.9207Z" fill="#AECAFC"/>
<path d="M65.9711 62.9365C65.9711 58.7549 62.5811 55.365 58.3996 55.365H46.6218C42.4402 55.365 39.0503 58.7549 39.0503 62.9365V68.8255C39.0503 70.6839 40.5569 72.1906 42.4155 72.1906H62.6061C64.4647 72.1906 65.9713 70.6841 65.9713 68.8255V62.9365H65.9711Z" fill="#C9DBFD"/>
<path d="M65.9711 62.9365C65.9711 58.7549 62.5811 55.365 58.3996 55.365H46.6218C42.4402 55.365 39.0503 58.7549 39.0503 62.9365V68.8255C39.0503 70.6839 40.5569 72.1906 42.4155 72.1906H62.6061C64.4647 72.1906 65.9713 70.6841 65.9713 68.8255V62.9365H65.9711Z" fill="#85A3C8"/>
<path d="M58.3994 55.365H53.7275C57.9091 55.365 61.299 58.7549 61.299 62.9365V68.8255C61.299 70.6839 59.7924 72.1906 57.9339 72.1906H62.6057C64.4641 72.1906 65.9709 70.6841 65.9709 68.8255V62.9365C65.9709 58.7547 62.5809 55.365 58.3994 55.365Z" fill="#6188B8"/>
<path d="M50.4526 50.9976H54.5694V59.7319H50.4526V50.9976Z" fill="#F2CDBE"/>
<path d="M62.6062 33.7676V45.2695C62.6062 50.9024 57.9928 55.4579 52.3382 55.3634C46.8028 55.271 42.4155 50.6395 42.4155 45.1034V33.7676H62.6062Z" fill="#F6E2C1"/>
<path d="M57.9342 33.7676V45.2695C57.9342 50.0361 54.6303 54.0303 50.188 55.0892C50.8794 55.2552 51.5981 55.351 52.3383 55.3634C57.9927 55.4579 62.6062 50.9024 62.6062 45.2695V33.7676H57.9342Z" fill="#F2D0AC"/>
<path d="M57.5584 28.4441H47.463C43.7461 28.4441 40.7329 31.4572 40.7329 35.1742V40.2219C40.7329 41.1512 41.4863 41.9044 42.4154 41.9044C45.6715 41.9044 48.3875 39.592 49.0111 36.5199C49.1701 35.7367 49.8587 35.174 50.6578 35.174H54.3636C55.1629 35.174 55.8515 35.7367 56.0103 36.5199C56.6339 39.592 59.3499 41.9044 62.606 41.9044C63.5353 41.9044 64.2885 41.151 64.2885 40.2219V35.1742C64.2885 31.4575 61.2753 28.4441 57.5584 28.4441V28.4441Z" fill="#817D84"/>
<path d="M57.5581 28.4441H52.8862C56.6032 28.4441 59.6164 31.4572 59.6164 35.1742V40.2219C59.6164 40.5359 59.5288 40.8288 59.3791 41.0803C60.3373 41.605 61.4364 41.9044 62.6058 41.9044C63.5351 41.9044 64.2882 41.1512 64.2882 40.2219V35.1742C64.2882 31.4575 61.2751 28.4441 57.5581 28.4441Z" fill="#756E79"/>
<path d="M56.9976 62.0951L53.5203 64.703C52.9221 65.1517 52.0994 65.1517 51.5012 64.703L48.0239 62.0951V55.3647H56.9976V62.0951Z" fill="#FFAC47"/>
<path d="M58.3997 55.365H52.5107L57.3754 62.6621C58.1442 63.8154 59.8998 63.5964 60.3617 62.2895L62.4041 56.5114C61.2425 55.7857 59.8706 55.365 58.3997 55.365V55.365Z" fill="#FFC278"/>
<path d="M42.6172 56.5114L44.6596 62.2895C45.1215 63.5964 46.8771 63.8154 47.646 62.6621L52.5106 55.365H46.6216C45.151 55.365 43.7791 55.7857 42.6172 56.5114V56.5114Z" fill="#FFC278"/>
<path d="M82.7966 6.73014H60.7528C60.6785 6.73014 60.6137 6.67753 60.5991 6.60461C59.8223 2.77773 56.4206 0 52.5104 0C48.6003 0 45.1985 2.77773 44.422 6.60461C44.4072 6.67733 44.3424 6.73034 44.268 6.73034H22.2243C17.6733 6.73034 13.9707 10.4329 13.9707 14.9839V32.1277C13.9707 32.969 14.6526 33.6511 15.4941 33.6511C16.3357 33.6511 17.0176 32.969 17.0176 32.1277V14.9839C17.0176 12.113 19.3533 9.77722 22.2243 9.77722H34.1615V13.4605H23.9072C22.1394 13.4605 20.7013 14.8988 20.7013 16.6664V94.0639C20.7013 95.8317 22.1394 97.2699 23.9072 97.2699H29.2729C30.1145 97.2699 30.7964 96.5878 30.7964 95.7464C30.7964 94.9051 30.1145 94.223 29.2729 94.223H23.9072C23.8194 94.223 23.7481 94.1515 23.7481 94.0639V16.6664C23.7481 16.5787 23.8196 16.5074 23.9072 16.5074H34.1615V20.0316C34.1615 21.7994 35.5997 23.2375 37.3675 23.2375H67.6534C69.4212 23.2375 70.8593 21.7992 70.8593 20.0316V16.5074H81.1137C81.2014 16.5074 81.2727 16.5789 81.2727 16.6664V94.0639C81.2727 94.1517 81.2012 94.223 81.1137 94.223H35.3669C34.5253 94.223 33.8434 94.9051 33.8434 95.7464C33.8434 96.5878 34.5253 97.2699 35.3669 97.2699H81.1139C82.8817 97.2699 84.3198 95.8317 84.3198 94.0639V16.6664C84.3198 14.8986 82.8817 13.4605 81.1139 13.4605H70.8595V9.77702H82.7968C85.6677 9.77702 88.0035 12.1127 88.0035 14.9837V95.7462C88.0035 98.6172 85.6677 100.953 82.7968 100.953H22.2243C19.3533 100.953 17.0176 98.6172 17.0176 95.7462V38.2212C17.0176 37.3799 16.3357 36.6978 15.4941 36.6978C14.6526 36.6978 13.9707 37.3799 13.9707 38.2212V95.7462C13.9707 100.297 17.6733 104 22.2243 104H82.7964C87.3474 104 91.0499 100.297 91.0499 95.7462V14.9837C91.0499 10.4327 87.3476 6.73014 82.7966 6.73014V6.73014ZM67.8124 20.0316C67.8124 20.1193 67.7409 20.1906 67.6534 20.1906H37.3675C37.2797 20.1906 37.2084 20.1191 37.2084 20.0316V9.77702H44.268C45.7854 9.77702 47.1059 8.69781 47.4079 7.21073C47.8975 4.79802 50.0435 3.04688 52.5104 3.04688C54.9776 3.04688 57.1234 4.79802 57.6129 7.21053C57.9146 8.69761 59.2351 9.77702 60.7528 9.77702H67.8124V20.0316Z" fill="#1F1F1F"/>
<path d="M27.4312 80.5457V84.0258C27.4312 85.7619 28.8435 87.1742 30.5796 87.1742H44.1552C45.8914 87.1742 47.3037 85.7619 47.3037 84.0258V80.5457C47.3037 78.8095 45.8914 77.3972 44.1552 77.3972H30.5796C28.8435 77.3972 27.4312 78.8095 27.4312 80.5457ZM44.2568 80.5457V84.0258C44.2568 84.0819 44.2111 84.1274 44.1552 84.1274H30.5796C30.5237 84.1274 30.478 84.0819 30.478 84.0258V80.5457C30.478 80.4896 30.5237 80.4441 30.5796 80.4441H44.1552C44.2113 80.4441 44.2568 80.4896 44.2568 80.5457Z" fill="#1F1F1F"/>
<path d="M50.9868 80.5457V84.0258C50.9868 85.7619 52.3991 87.1742 54.1353 87.1742H74.4411C76.1772 87.1742 77.5895 85.7619 77.5895 84.0258V80.5457C77.5895 78.8095 76.1772 77.3972 74.4411 77.3972H54.1353C52.3991 77.3972 50.9868 78.8095 50.9868 80.5457ZM74.5426 80.5457V84.0258C74.5426 84.0819 74.4969 84.1274 74.4411 84.1274H54.1353C54.0794 84.1274 54.0337 84.0819 54.0337 84.0258V80.5457C54.0337 80.4896 54.0794 80.4441 54.1353 80.4441H74.4411C74.4969 80.4441 74.5426 80.4896 74.5426 80.5457Z" fill="#1F1F1F"/>
<path d="M52.5103 6.72998C51.6687 6.72998 50.9868 7.41207 50.9868 8.25342V9.9359C50.9868 10.7772 51.6687 11.4593 52.5103 11.4593C53.3518 11.4593 54.0337 10.7772 54.0337 9.9359V8.25342C54.0337 7.41207 53.3518 6.72998 52.5103 6.72998Z" fill="#1F1F1F"/>
<path d="M37.5264 62.9365V68.8255C37.5264 71.521 39.7193 73.7139 42.4148 73.7139H62.6054C65.3011 73.7139 67.4938 71.521 67.4938 68.8255V62.9365C67.4938 58.5235 64.334 54.8359 60.1584 54.0141C60.3276 53.8656 60.4943 53.7135 60.6564 53.5542C62.8955 51.3521 64.1288 48.4101 64.1288 45.2697V43.0421C65.13 42.4991 65.8113 41.4386 65.8113 40.2219V35.1742C65.8113 30.6232 62.1088 26.9207 57.5575 26.9207H47.4626C42.9116 26.9207 39.2089 30.6232 39.2089 35.1742V40.2219C39.2089 41.4386 39.8901 42.4991 40.8913 43.0421V45.1034C40.8913 48.6384 42.4601 51.8331 44.926 54.0023C40.7189 54.7992 37.5264 58.5009 37.5264 62.9365ZM46.3781 61.8171C46.3605 61.8435 46.3247 61.8994 46.226 61.8868C46.1285 61.8746 46.1062 61.812 46.0956 61.782L44.5017 57.2728C45.1616 57.025 45.8756 56.8885 46.6213 56.8885H49.6639L46.3781 61.8171ZM52.5103 58.1113L54.9301 61.7412L52.6058 63.4844C52.5495 63.5264 52.4713 63.5264 52.415 63.4844L50.0907 61.7412L52.5103 58.1113ZM55.3569 56.8885H58.3993C59.1448 56.8885 59.8587 57.025 60.5189 57.2728L58.925 61.7818C58.9144 61.8118 58.8923 61.8746 58.7946 61.8868C58.6952 61.8986 58.6603 61.8437 58.6424 61.8171L55.3569 56.8885ZM42.2559 35.1744C42.2559 32.3035 44.5917 29.9677 47.4628 29.9677H57.5579C60.4291 29.9677 62.7649 32.3035 62.7649 35.1744V40.2221C62.7649 40.3098 62.6933 40.3811 62.6058 40.3811C60.1386 40.3811 57.9928 38.63 57.5031 36.2171C57.2013 34.7302 55.8807 33.651 54.3634 33.651H50.6576C49.1402 33.651 47.8197 34.7302 47.5177 36.2173C47.0281 38.63 44.8821 40.3811 42.4152 40.3811C42.3274 40.3811 42.2561 40.3096 42.2561 40.2221L42.2559 35.1744ZM43.9384 45.1036V43.2842C47.1807 42.6716 49.8298 40.1429 50.5034 36.8236C50.5182 36.7509 50.583 36.6979 50.6574 36.6979H54.3632C54.4375 36.6979 54.5023 36.7507 54.517 36.8234C55.1907 40.1429 57.8399 42.6716 61.0822 43.2842V45.2697C61.0822 47.5864 60.1724 49.757 58.5204 51.3818C56.9039 52.9714 54.7751 53.8416 52.5109 53.8416C52.5085 53.8416 52.506 53.8416 52.5036 53.8416H52.502C52.4559 53.8416 52.4095 53.8412 52.3632 53.8404C47.7178 53.7628 43.9384 49.8435 43.9384 45.1036ZM40.5732 62.9365C40.5732 61.4948 41.0811 60.1698 41.9263 59.1296L43.2228 62.7974C43.6301 63.9493 44.6364 64.759 45.8488 64.9101C45.9843 64.9272 46.1192 64.9353 46.2528 64.9353C47.0052 64.9353 47.7214 64.672 48.2898 64.1994L50.5867 65.9221C51.153 66.3468 51.8314 66.5591 52.5103 66.5591C53.1889 66.5591 53.8678 66.3468 54.4339 65.9221L56.7308 64.1994C57.2992 64.672 58.0156 64.9353 58.7678 64.9353C58.9014 64.9353 59.0365 64.9272 59.1718 64.9101C60.3842 64.759 61.3905 63.9493 61.7978 62.7974L63.0943 59.1296C63.9395 60.17 64.4473 61.495 64.4473 62.9367V68.8257C64.4473 69.8412 63.6212 70.6673 62.6058 70.6673H42.4152C41.3998 70.6673 40.5736 69.8412 40.5736 68.8257L40.5732 62.9365Z" fill="#1F1F1F"/>
<path d="M49.1455 46.7932C49.9871 46.7932 50.6689 46.1112 50.6689 45.2698V44.4285C50.6689 43.5871 49.9871 42.905 49.1455 42.905C48.304 42.905 47.6221 43.5871 47.6221 44.4285V45.2698C47.6221 46.1112 48.304 46.7932 49.1455 46.7932Z" fill="#1F1F1F"/>
<path d="M55.8755 46.7932C56.717 46.7932 57.3989 46.1112 57.3989 45.2698V44.4285C57.3989 43.5871 56.717 42.905 55.8755 42.905C55.0339 42.905 54.3521 43.5871 54.3521 44.4285V45.2698C54.3521 46.1112 55.0341 46.7932 55.8755 46.7932Z" fill="#1F1F1F"/>
</g>
<defs>
<clipPath id="clip0">
<rect width="104" height="104" fill="white" transform="translate(0.51123)"/>
</clipPath>
</defs>
</svg>
