<svg width="105" height="104" viewBox="0 0 105 104" fill="none" xmlns="http://www.w3.org/2000/svg">
<g clip-path="url(#clip0)">
<path d="M53.9569 92.3695H82.5604C84.4189 92.3695 85.9255 90.863 85.9255 89.0044V76.0472C85.9255 75.1498 86.6531 74.4222 87.5505 74.4222H89.2907C90.6772 74.4222 91.4686 72.8393 90.6368 71.7302L83.9067 62.7566C83.2337 61.8591 81.8876 61.8591 81.2146 62.7566L74.4845 71.7302C73.6527 72.8395 74.4441 74.4222 75.8306 74.4222H77.5708C78.4682 74.4222 79.1958 75.1498 79.1958 76.0472V83.9567C79.1958 84.886 78.4424 85.6392 77.5133 85.6392H53.9569C53.0276 85.6392 52.2744 86.3924 52.2744 87.3217V90.6869C52.2744 91.6162 53.0278 92.3695 53.9569 92.3695V92.3695Z" fill="#EDF6FF"/>
<path d="M57.3219 11.6069H28.7185C26.8599 11.6069 25.3533 13.1135 25.3533 14.9721V27.9292C25.3533 28.8267 24.6257 29.5542 23.7283 29.5542H21.9884C20.6018 29.5542 19.8105 31.1372 20.6422 32.2463L27.3724 41.2199C28.0453 42.1173 29.3914 42.1173 30.0644 41.2199L36.7945 32.2463C37.6265 31.137 36.835 29.5542 35.4484 29.5542H33.7087C32.8113 29.5542 32.0837 28.8267 32.0837 27.9292V20.0196C32.0837 19.0903 32.8371 18.3371 33.7662 18.3371H57.3219C58.2512 18.3371 59.0044 17.5837 59.0044 16.6546V13.2894C59.0044 12.3601 58.2512 11.6069 57.3219 11.6069V11.6069Z" fill="#EDF6FF"/>
<path d="M73.772 27.4304H77.8887V36.1648H73.772V27.4304Z" fill="#F2CDBE"/>
<path d="M92.656 41.8929C92.656 36.3173 88.1363 31.7976 82.5607 31.7976H69.1002C63.5246 31.7976 59.0049 36.3173 59.0049 41.8929V51.9882C59.0049 53.8466 60.5115 55.3534 62.3701 55.3534H89.2908C91.1494 55.3534 92.656 53.8468 92.656 51.9882V41.8929Z" fill="#FFC278"/>
<path d="M79.1957 41.8929L80.7492 50.9564C80.8282 51.5887 80.5432 52.2115 80.0129 52.5651L76.7637 54.7312C76.1986 55.108 75.4623 55.108 74.897 54.7312L71.6478 52.5651C71.1174 52.2117 70.8324 51.5889 70.9115 50.9564L72.465 41.8929V41.1414H79.1923L79.1957 41.8929Z" fill="#75E3EA"/>
<path d="M80.3174 38.5277L79.1955 41.8929H72.4654L71.3438 38.5277V31.7976H80.3174V38.5277Z" fill="#A2ECF1"/>
<path d="M85.926 6.83521V21.7023C85.926 27.3352 81.3126 31.8907 75.658 31.7962C70.1226 31.7038 65.7354 27.0721 65.7354 21.5362V6.83521H85.926Z" fill="#F6E2C1"/>
<path d="M81.254 6.83521V21.7023C81.254 26.4689 77.9502 30.4631 73.5078 31.522C74.1993 31.688 74.9179 31.7838 75.6581 31.7962C81.3125 31.8907 85.9261 27.3352 85.9261 21.7023V6.83521H81.254Z" fill="#F2D0AC"/>
<path d="M80.8782 1.51172H70.7829C67.0659 1.51172 64.0527 4.52487 64.0527 8.24186V13.2895C64.0527 14.2188 64.8061 14.972 65.7352 14.972C68.9913 14.972 71.7073 12.6598 72.3309 9.58756C72.4899 8.80431 73.1785 8.24166 73.9776 8.24166H77.6834C78.4827 8.24166 79.1713 8.80431 79.3302 9.58756C79.9538 12.6596 82.6697 14.972 85.9258 14.972C86.8551 14.972 87.6083 14.2188 87.6083 13.2895V8.24186C87.6083 4.52487 84.5952 1.51172 80.8782 1.51172V1.51172Z" fill="#817D84"/>
<path d="M80.8779 1.51172H76.2061C79.923 1.51172 82.9362 4.52487 82.9362 8.24186V13.2895C82.9362 13.6035 82.8487 13.8962 82.699 14.1479C83.6571 14.6726 84.7562 14.972 85.9256 14.972C86.8549 14.972 87.6081 14.2188 87.6081 13.2895V8.24186C87.6081 4.52487 84.5949 1.51172 80.8779 1.51172V1.51172Z" fill="#756E79"/>
<path d="M82.5605 31.7976H77.8887C83.464 31.7976 87.984 36.3173 87.984 41.8929V51.9882C87.984 53.8466 86.4774 55.3534 84.6188 55.3534H89.2907C91.1493 55.3534 92.6559 53.8468 92.6559 51.9882V41.8929C92.6559 36.3173 88.1359 31.7976 82.5605 31.7976Z" fill="#FFAC47"/>
<path d="M65.7354 32.3743L67.9793 38.7221C68.4412 40.029 70.1968 40.248 70.9656 39.0947L75.8303 31.7976H69.1001C67.9198 31.7978 66.7879 32.0022 65.7354 32.3743V32.3743Z" fill="#EDF6FF"/>
<path d="M82.5607 31.7976H75.8306L80.6952 39.0947C81.464 40.248 83.2196 40.029 83.6816 38.7221L85.9255 32.3743C84.8727 32.0019 83.7409 31.7976 82.5607 31.7976V31.7976Z" fill="#EDF6FF"/>
<path d="M26.6606 74.5535H30.7774V83.2878H26.6606V74.5535Z" fill="#F2CDBE"/>
<path d="M45.5447 89.016C45.5447 83.4406 41.0249 78.9207 35.4494 78.9207H21.9889C16.4133 78.9207 11.8936 83.4404 11.8936 89.016V99.1113C11.8936 100.97 13.4001 102.476 15.2587 102.476H42.1795C44.0379 102.476 45.5447 100.97 45.5447 99.1113V89.016Z" fill="#85A3C8"/>
<path d="M32.0842 89.016L33.6377 98.0794C33.7167 98.7117 33.4317 99.3345 32.9013 99.688L29.6522 101.854C29.0871 102.231 28.3507 102.231 27.7856 101.854L24.5365 99.688C24.0061 99.3345 23.7211 98.7117 23.8001 98.0794L25.3536 89.016V88.2644H32.0809L32.0842 89.016Z" fill="#FFC278"/>
<path d="M33.2061 85.651L32.0844 89.016H25.3543L24.2324 85.651V78.9207H33.2061V85.651Z" fill="#FFAC47"/>
<path d="M38.8142 53.9583V68.8254C38.8142 74.4582 34.2008 79.0137 28.5462 78.9193C23.0108 78.8268 18.6235 74.1952 18.6235 68.6592V53.9583H38.8142Z" fill="#F6E2C1"/>
<path d="M34.1427 53.9583V68.8254C34.1427 73.5919 30.8388 77.5862 26.3965 78.645C27.0879 78.811 27.8066 78.9069 28.5468 78.9193C34.2012 79.0137 38.8147 74.4582 38.8147 68.8254V53.9583H34.1427Z" fill="#F2D0AC"/>
<path d="M35.4492 78.9207H30.7773C36.3529 78.9207 40.8727 83.4404 40.8727 89.016V99.1113C40.8727 100.97 39.3661 102.476 37.5075 102.476H42.1794C44.0377 102.476 45.5445 100.97 45.5445 99.1113V89.016C45.5445 83.4406 41.0246 78.9207 35.4492 78.9207V78.9207Z" fill="#6188B8"/>
<path d="M18.624 79.4973L20.8679 85.8452C21.3299 87.1521 23.0855 87.3711 23.8543 86.2177L28.7189 78.9207H21.9888C20.8086 78.9207 19.6768 79.1252 18.624 79.4973V79.4973Z" fill="#EDF6FF"/>
<path d="M35.4494 78.9207H28.7192L33.5839 86.2177C34.3527 87.3711 36.1083 87.1521 36.5702 85.8452L38.8141 79.4973C37.7613 79.1252 36.6295 78.9207 35.4494 78.9207Z" fill="#EDF6FF"/>
<path d="M33.7664 48.6348H23.6711C19.9541 48.6348 16.9409 51.6479 16.9409 55.3649V60.4126C16.9409 61.3419 17.6943 62.095 18.6234 62.095C21.0906 62.095 23.2473 60.7674 24.419 58.788C24.6064 58.4711 24.9402 58.2696 25.3084 58.2696H25.399C25.7673 58.2696 26.1008 58.4711 26.2885 58.788C27.4602 60.7676 29.6169 62.095 32.0841 62.095H38.8142C39.7435 62.095 40.4967 61.3417 40.4967 60.4126V55.3649C40.4967 51.6481 37.4834 48.6348 33.7664 48.6348V48.6348Z" fill="#D2A677"/>
<path d="M33.7666 48.6348H29.0947C32.8117 48.6348 35.8249 51.6479 35.8249 55.3649V60.4126C35.8249 61.3419 35.0717 62.095 34.1424 62.095H38.8143C39.7436 62.095 40.4967 61.3417 40.4967 60.4126V55.3649C40.4969 51.6481 37.4836 48.6348 33.7666 48.6348V48.6348Z" fill="#AF8766"/>
<path d="M83.6162 30.3361C83.7379 30.226 83.8588 30.1143 83.9766 29.9983C86.2156 27.7962 87.449 24.8542 87.449 21.7139V16.1214C88.4502 15.5785 89.1315 14.518 89.1315 13.3012V8.25358C89.1315 3.70256 85.4289 0 80.8777 0H70.7826C66.2316 0 62.5288 3.70256 62.5288 8.25358V13.3012C62.5288 14.518 63.2101 15.5785 64.2113 16.1214V21.5479C64.2113 25.0205 65.7254 28.1643 68.1162 30.3306C62.1685 30.8319 57.481 35.8296 57.481 41.9047V52C57.481 54.6957 59.6741 56.8886 62.3696 56.8886H89.2903C91.986 56.8886 94.1787 54.6957 94.1787 52V41.9047C94.1791 35.8542 89.5296 30.8718 83.6162 30.3361V30.3361ZM73.7496 43.4281H77.9107L79.2383 51.1735C79.2397 51.2277 79.2135 51.2787 79.1674 51.3094L75.9184 53.4755C75.8648 53.5113 75.7955 53.5113 75.7419 53.4755L72.4927 51.3094C72.4468 51.2789 72.4208 51.2279 72.4218 51.1737L73.7496 43.4281ZM78.0973 40.3813H73.5632L73.0243 38.7646L75.8303 34.5556L78.6362 38.7646L78.0973 40.3813ZM69.6979 38.2614C69.6802 38.288 69.6447 38.3435 69.5458 38.3311C69.4483 38.3189 69.4259 38.2564 69.4154 38.2263L67.7252 33.4445C68.1731 33.372 68.6319 33.3328 69.0999 33.3328H72.9837L69.6979 38.2614ZM78.6766 33.3328H82.5604C83.0284 33.3328 83.4873 33.372 83.9351 33.4445L82.2449 38.2261C82.2344 38.2562 82.2122 38.3189 82.1145 38.3311C82.0154 38.3427 81.9803 38.288 81.9624 38.2614L78.6766 33.3328ZM65.5757 8.25358C65.5757 5.38261 67.9114 3.04688 70.7826 3.04688H80.8777C83.7489 3.04688 86.0846 5.38261 86.0846 8.25358V13.3012C86.0846 13.389 86.0131 13.4603 85.9256 13.4603C83.4586 13.4603 81.3126 11.7091 80.8229 9.29602C80.521 7.80914 79.2005 6.72994 77.6832 6.72994H73.9774C72.46 6.72994 71.1395 7.80914 70.8374 9.29622C70.3479 11.7089 68.2019 13.4603 65.7349 13.4603C65.6472 13.4603 65.5759 13.3888 65.5759 13.3012V8.25358H65.5757ZM67.2584 21.5479V16.3633C70.5007 15.7507 73.1498 13.222 73.8234 9.90255C73.8382 9.82983 73.903 9.77702 73.9774 9.77702H77.6832C77.7575 9.77702 77.8223 9.82983 77.8369 9.90234C78.5107 13.222 81.1598 15.7505 84.4021 16.3633V21.7141C84.4021 24.0307 83.4923 26.2013 81.8403 27.8261C80.2238 29.4158 78.0951 30.2859 75.8309 30.2859C75.829 30.2859 75.8272 30.2859 75.8254 30.2859C75.824 30.2859 75.8223 30.2859 75.8209 30.2859C75.7752 30.2859 75.7293 30.2855 75.6832 30.2847C71.0377 30.2071 67.2584 26.2878 67.2584 21.5479V21.5479ZM60.528 52V41.9047C60.528 38.7225 62.2723 35.942 64.8538 34.4632L66.543 39.2417C66.9502 40.3936 67.9565 41.2033 69.169 41.3544C69.3045 41.3713 69.4393 41.3796 69.573 41.3796C69.9362 41.3796 70.2908 41.317 70.6248 41.2007L70.8992 42.0239L69.4101 50.711C69.4062 50.7335 69.403 50.7563 69.3999 50.779C69.2484 51.9902 69.7844 53.1633 70.7991 53.8417H62.3698C61.3541 53.8417 60.528 53.0156 60.528 52V52ZM91.1323 52C91.1323 53.0156 90.3062 53.8417 89.2907 53.8417H80.8615C81.8759 53.1635 82.4119 51.9907 82.2606 50.7794C82.2575 50.7565 82.2543 50.7335 82.2504 50.7108L80.7613 42.0237L81.0357 41.2007C81.3699 41.317 81.7243 41.3796 82.0875 41.3796C82.2212 41.3796 82.3561 41.3713 82.4915 41.3544C83.704 41.2031 84.7103 40.3936 85.1175 39.2415L86.8065 34.4632C89.3878 35.942 91.1321 38.7225 91.1321 41.9047V52H91.1323Z" fill="#1F1F1F"/>
<path d="M72.4653 20.7137C73.3069 20.7137 73.9888 20.0316 73.9888 19.1902V18.3489C73.9888 17.5075 73.3069 16.8254 72.4653 16.8254C71.6238 16.8254 70.9419 17.5075 70.9419 18.3489V19.1902C70.9419 20.0316 71.624 20.7137 72.4653 20.7137Z" fill="#1F1F1F"/>
<path d="M79.1953 20.7137C80.0369 20.7137 80.7188 20.0316 80.7188 19.1902V18.3489C80.7188 17.5075 80.0369 16.8254 79.1953 16.8254C78.3538 16.8254 77.6719 17.5075 77.6719 18.3489V19.1902C77.6719 20.0316 78.354 20.7137 79.1953 20.7137Z" fill="#1F1F1F"/>
<path d="M36.5049 77.4474C36.6266 77.3373 36.7472 77.2256 36.865 77.1098C39.1041 74.9077 40.3375 71.9657 40.3375 68.8253V63.2327C41.3387 62.6898 42.02 61.6292 42.02 60.4125V55.3649C42.02 50.8136 38.3172 47.1111 33.7662 47.1111H23.6711C19.12 47.1111 15.4173 50.8136 15.4173 55.3649V60.4125C15.4173 61.6292 16.0986 62.6898 17.0998 63.2327V68.6592C17.0998 72.1316 18.6139 75.2754 21.0046 77.4417C15.0571 77.9432 10.3696 82.9407 10.3696 89.0158V99.1111C10.3698 101.807 12.5628 104 15.2584 104H17.2355C18.077 104 18.7589 103.318 18.7589 102.476C18.7589 101.635 18.077 100.953 17.2355 100.953H15.2584C14.243 100.953 13.4169 100.127 13.4169 99.1113V89.016C13.4169 85.8338 15.1611 83.0532 17.7425 81.5745L19.4314 86.3528C19.8387 87.5047 20.8448 88.3144 22.0574 88.4657C22.1927 88.4826 22.3278 88.4909 22.4615 88.4909C22.8246 88.4909 23.1793 88.4283 23.5132 88.3119L23.7877 89.1352L22.2986 97.8223C22.2947 97.845 22.2914 97.868 22.2884 97.8909C22.1373 99.1023 22.6733 100.275 23.6877 100.953H23.3292C22.4877 100.953 21.8058 101.635 21.8058 102.477C21.8058 103.318 22.4877 104 23.3292 104H42.1792C44.8747 104 47.0678 101.807 47.0678 99.1115V89.0162C47.0678 82.9655 42.4183 77.983 36.5049 77.4474ZM30.9858 87.4925H26.4516L25.9128 85.8759L28.7187 81.6669L31.5247 85.8759L30.9858 87.4925ZM26.6383 90.5394H30.7991L32.127 98.285C32.1282 98.3392 32.102 98.39 32.0561 98.4207L28.8069 100.587C28.7533 100.623 28.684 100.623 28.6304 100.587L25.3812 98.4205C25.3353 98.39 25.3093 98.339 25.3105 98.2848L26.6383 90.5394ZM31.5653 80.4441H35.4491C35.9171 80.4441 36.3759 80.4833 36.8238 80.5558L35.1336 85.3376C35.1228 85.3676 35.1009 85.4304 35.0032 85.4426C34.9049 85.4536 34.8687 85.3995 34.8511 85.3729L31.5653 80.4441ZM18.4644 55.3651C18.4644 52.4939 20.8001 50.1582 23.6713 50.1582H33.7664C36.6375 50.1582 38.9733 52.4939 38.9733 55.3651V60.4127C38.9733 60.5005 38.9018 60.572 38.8142 60.572H32.0839C29.2129 60.572 26.8772 58.2362 26.8772 55.3653C26.8772 54.5239 26.1953 53.8418 25.3538 53.8418C24.5122 53.8418 23.8303 54.5239 23.8303 55.3653C23.8303 58.2362 21.4946 60.572 18.6234 60.572C18.5357 60.572 18.4644 60.5005 18.4644 60.4127V55.3651ZM20.1468 68.6594V63.4754C22.287 63.0743 24.1374 61.8452 25.3538 60.1338C26.8508 62.2404 29.3086 63.6186 32.0839 63.6186H37.2908V68.8253C37.2908 71.142 36.381 73.3126 34.729 74.9374C33.0776 76.5616 30.8991 77.4338 28.5719 77.396C23.9262 77.3186 20.1468 73.3993 20.1468 68.6594V68.6594ZM22.4344 85.4424C22.3369 85.4302 22.3148 85.3674 22.304 85.3374L20.6138 80.5558C21.0617 80.4833 21.5206 80.4441 21.9888 80.4441H25.8723L22.5866 85.3727C22.5689 85.3993 22.533 85.4542 22.4344 85.4424V85.4424ZM44.0209 99.1113C44.0209 100.127 43.1948 100.953 42.1792 100.953H33.7501C34.7647 100.275 35.3008 99.1015 35.1492 97.8903C35.1462 97.8676 35.143 97.8448 35.1391 97.8223L33.65 89.1352L33.9244 88.3121C34.2585 88.4285 34.613 88.4911 34.9762 88.4911C35.1098 88.4911 35.2449 88.4828 35.3802 88.4659C36.5929 88.3146 37.5989 87.5051 38.0062 86.353L39.6954 81.5745C42.2767 83.0532 44.0211 85.834 44.0211 89.016V99.1113H44.0209Z" fill="#1F1F1F"/>
<path d="M25.3535 67.825C26.1951 67.825 26.877 67.1429 26.877 66.3015V65.4602C26.877 64.6189 26.1951 63.9368 25.3535 63.9368C24.512 63.9368 23.8301 64.6189 23.8301 65.4602V66.3015C23.8301 67.1429 24.512 67.825 25.3535 67.825V67.825Z" fill="#1F1F1F"/>
<path d="M32.084 67.825C32.9255 67.825 33.6074 67.1429 33.6074 66.3015V65.4602C33.6074 64.6189 32.9255 63.9368 32.084 63.9368C31.2424 63.9368 30.5605 64.6189 30.5605 65.4602V66.3015C30.5605 67.1429 31.2424 67.825 32.084 67.825Z" fill="#1F1F1F"/>
<path d="M26.154 42.1457C26.7654 42.9606 27.7 43.4278 28.7189 43.4278C29.7378 43.4278 30.6723 42.9604 31.2837 42.1455L38.0139 33.1718C38.7472 32.194 38.8634 30.9076 38.3165 29.8144C37.7701 28.7214 36.6712 28.0421 35.4492 28.0421H33.6075V20.0315C33.6075 19.9437 33.679 19.8724 33.7665 19.8724H57.3223C59.0901 19.8724 60.5283 18.4341 60.5283 16.6663V13.3011C60.5283 11.5333 59.0901 10.0952 57.3223 10.0952H50.6198C49.7785 10.0952 49.0964 10.7773 49.0964 11.6187C49.0964 12.46 49.7785 13.1421 50.6198 13.1421H57.3223C57.4101 13.1421 57.4814 13.2136 57.4814 13.3011V16.6663C57.4814 16.7541 57.4099 16.8256 57.3223 16.8256H33.7665C31.9987 16.8256 30.5606 18.2639 30.5606 20.0315V29.566C30.5606 30.4073 31.2425 31.0894 32.0841 31.0894H35.4492C35.4811 31.0894 35.5473 31.0894 35.5914 31.1774C35.6355 31.2653 35.5955 31.3185 35.5764 31.3441L28.8462 40.3176C28.8345 40.3334 28.7987 40.3812 28.7189 40.3812C28.6391 40.3812 28.6033 40.3332 28.5915 40.3176L21.8614 31.3439C21.8421 31.3183 21.8023 31.2653 21.8464 31.1774C21.8904 31.0894 21.9569 31.0894 21.9887 31.0894H25.3537C26.1953 31.0894 26.8772 30.4073 26.8772 29.566V14.9838C26.8772 13.9684 27.7033 13.1423 28.7187 13.1423H44.5257C45.3672 13.1423 46.0491 12.4602 46.0491 11.6189C46.0491 10.7775 45.3672 10.0954 44.5257 10.0954H28.7187C26.023 10.0954 23.8303 12.2884 23.8303 14.9838V28.0425H21.9887C20.7663 28.0425 19.6676 28.7216 19.1212 29.8148C18.5746 30.9078 18.6906 32.1944 19.4239 33.172L26.154 42.1457Z" fill="#1F1F1F"/>
<path d="M85.1252 61.8541C84.5138 61.0392 83.5792 60.572 82.5604 60.572C81.5417 60.572 80.6071 61.0394 79.9957 61.8544L73.2653 70.828C72.5321 71.8058 72.4159 73.0922 72.9627 74.1853C73.5091 75.2785 74.608 75.9575 75.8302 75.9575H77.6717V83.9686C77.6717 84.0563 77.6002 84.1276 77.5127 84.1276H53.9569C52.1891 84.1276 50.751 85.5659 50.751 87.3337V90.6987C50.751 92.4665 52.1891 93.9046 53.9569 93.9046H82.5604C85.2558 93.9046 87.449 91.7117 87.449 89.0162V75.9575H89.2905C90.5127 75.9575 91.6114 75.2785 92.1578 74.1855C92.7044 73.0922 92.5886 71.8059 91.8553 70.8278L85.1252 61.8541ZM89.4329 72.8227C89.389 72.9106 89.3226 72.9106 89.2907 72.9106H85.9257C85.0842 72.9106 84.4023 73.5927 84.4023 74.4341V89.0162C84.4023 90.0316 83.5762 90.8578 82.5606 90.8578H53.9569C53.8691 90.8578 53.7979 90.7863 53.7979 90.6987V87.3335C53.7979 87.2458 53.8693 87.1743 53.9569 87.1743H77.5127C79.2805 87.1743 80.7186 85.736 80.7186 83.9684V74.4339C80.7186 73.5925 80.0367 72.9104 79.1952 72.9104H75.8302C75.7983 72.9104 75.7319 72.9104 75.6878 72.8225C75.6437 72.7345 75.6836 72.6815 75.7028 72.6559L82.4332 63.6825C82.445 63.6666 82.4809 63.6187 82.5604 63.6187C82.6402 63.6187 82.6759 63.6666 82.6877 63.6823L89.4178 72.6557C89.4369 72.6813 89.4768 72.7345 89.4329 72.8227V72.8227Z" fill="#1F1F1F"/>
</g>
<defs>
<clipPath id="clip0">
<rect width="104" height="104" fill="white" transform="translate(0.275391)"/>
</clipPath>
</defs>
</svg>
