<svg width="454" height="352" viewBox="0 0 454 352" fill="none" xmlns="http://www.w3.org/2000/svg">
<path d="M454 352C454 243.2 365.8 155 257 155C148.2 155 60 243.2 60 352H454Z" fill="#8396AD"/>
<path d="M60 120C93.1371 120 120 93.1371 120 60C120 26.8629 93.1371 0 60 0V120Z" fill="#CCE4E2"/>
<path d="M60 -4.76837e-06C26.8629 -4.76837e-06 -2.38419e-06 26.8629 -2.38419e-06 60C-2.38419e-06 93.1371 26.8629 120 60 120L60 -4.76837e-06Z" fill="#CCE4E2"/>
<path d="M431 166C443.703 166 454 155.703 454 143C454 130.297 443.703 120 431 120V166Z" fill="#FFC989"/>
<path d="M431 120C418.297 120 408 130.297 408 143C408 155.703 418.297 166 431 166V120Z" fill="#FFC989"/>
</svg>
