<svg width="331" height="317" viewBox="0 0 331 317" fill="none" xmlns="http://www.w3.org/2000/svg">
<path d="M100 294C155.228 294 200 249.228 200 194C200 138.772 155.228 94 100 94V294Z" fill="#8396AD"/>
<path d="M100 94C44.7715 94 0 138.772 0 194C0 249.228 44.7715 294 100 294L100 94Z" fill="#8396AD"/>
<path d="M200 64C217.673 64 232 49.6731 232 32C232 14.3269 217.673 0 200 0V64Z" fill="#CCE4E2"/>
<path d="M200 0C182.327 0 168 14.3269 168 32C168 49.6731 182.327 64 200 64V0Z" fill="#CCE4E2"/>
<path d="M308 317C320.703 317 331 306.703 331 294C331 281.297 320.703 271 308 271V317Z" fill="#FFC989"/>
<path d="M308 271C295.297 271 285 281.297 285 294C285 306.703 295.297 317 308 317V271Z" fill="#FFC989"/>
</svg>
