<svg width="32" height="32" viewBox="0 0 32 32" fill="none" xmlns="http://www.w3.org/2000/svg">
<path opacity="0.1" fill-rule="evenodd" clip-rule="evenodd" d="M0 16C0 7.16344 7.16344 0 16 0C24.8366 0 32 7.16344 32 16C32 24.8366 24.8366 32 16 32C7.16344 32 0 24.8366 0 16Z" fill="white"/>
<path d="M18.0004 24H15.2595C14.8017 24 14.4293 23.6301 14.4293 23.1754V17.0349H12.8302C12.3724 17.0349 12 16.6648 12 16.2102V13.579C12 13.1243 12.3724 12.7544 12.8302 12.7544H14.4293V11.4368C14.4293 10.1303 14.8423 9.01878 15.6236 8.22255C16.4083 7.42269 17.5051 7 18.7952 7L20.8855 7.00337C21.3425 7.00415 21.7143 7.37405 21.7143 7.828V10.271C21.7143 10.7258 21.342 11.0957 20.8843 11.0957L19.4769 11.0962C19.0477 11.0962 18.9384 11.1816 18.9151 11.2078C18.8765 11.2513 18.8307 11.3741 18.8307 11.7133V12.7543H20.7786C20.9252 12.7543 21.0673 12.7902 21.1894 12.8579C21.4527 13.0041 21.6165 13.2804 21.6165 13.5791L21.6154 16.2104C21.6154 16.6648 21.243 17.0347 20.7852 17.0347H18.8307V23.1754C18.8307 23.6301 18.4582 24 18.0004 24ZM15.4327 23.0034H17.8272V16.5887C17.8272 16.2851 18.076 16.0381 18.3815 16.0381H20.6121L20.613 13.751H18.3814C18.0758 13.751 17.8272 13.5041 17.8272 13.2004V11.7133C17.8272 11.3239 17.867 10.8811 18.1629 10.5483C18.5205 10.146 19.0839 10.0996 19.4767 10.0996L20.7109 10.099V7.99973L18.7944 7.99661C16.7211 7.99661 15.4327 9.31488 15.4327 11.4368V13.2004C15.4327 13.5039 15.184 13.751 14.8785 13.751H13.0034V16.0381H14.8785C15.184 16.0381 15.4327 16.2851 15.4327 16.5887V23.0034Z" fill="white"/>
</svg>
