<svg width="32" height="32" viewBox="0 0 32 32" fill="none" xmlns="http://www.w3.org/2000/svg">
<path opacity="0.1" fill-rule="evenodd" clip-rule="evenodd" d="M0 16C0 7.16344 7.16344 0 16 0C24.8366 0 32 7.16344 32 16C32 24.8366 24.8366 32 16 32C7.16344 32 0 24.8366 0 16Z" fill="white"/>
<path d="M12.465 12.3579H9.59921C9.27795 12.3579 9.0166 12.6193 9.0166 12.9405V23.741C9.0166 24.0621 9.27795 24.3235 9.59921 24.3235H12.465C12.7862 24.3235 13.0475 24.0621 13.0475 23.741V12.9405C13.0475 12.6193 12.7862 12.3579 12.465 12.3579ZM12.05 23.3259H10.0141V13.3554H12.05V23.3259Z" fill="white"/>
<path d="M11.0321 7.32349C9.91153 7.32349 9 8.23501 9 9.35549C9 10.4761 9.91153 11.3876 11.0321 11.3876C12.1525 11.3876 13.0641 10.4761 13.0641 9.35549C13.0641 8.23501 12.1526 7.32349 11.0321 7.32349ZM11.0321 10.3901C10.4616 10.3901 9.99752 9.92603 9.99752 9.35549C9.99752 8.78507 10.4616 8.321 11.0321 8.321C11.6025 8.321 12.0666 8.78507 12.0666 9.35549C12.0666 9.9259 11.6025 10.3901 11.0321 10.3901Z" fill="white"/>
<path d="M22.3155 13.624C21.6304 13.0522 20.7595 12.7464 19.8641 12.763C19.3079 12.7732 18.7645 12.9073 18.272 13.1501V12.9143C18.272 12.6071 18.0229 12.3579 17.7156 12.3579H14.7976C14.4904 12.3579 14.2412 12.6071 14.2412 12.9143V23.7669C14.2412 24.0743 14.4904 24.3233 14.7976 24.3233H17.7732C18.0487 24.3233 18.272 24.1 18.272 23.8246V17.3541C18.272 16.8001 18.7055 16.3314 19.259 16.3149C19.8344 16.2979 20.3078 16.7608 20.3078 17.3324V23.835C20.3078 24.1046 20.5264 24.3233 20.7961 24.3233H23.6558C23.9255 24.3233 24.1441 24.1046 24.1441 23.835V17.5302C24.1441 16.0179 23.4776 14.5941 22.3155 13.624ZM23.1466 23.3258H21.3054V17.3324C21.3054 16.2211 20.4013 15.317 19.2899 15.317C18.1786 15.317 17.2745 16.2211 17.2745 17.3324V23.3258H15.2387V13.3553H17.2745V14.0802H17.2751C17.275 14.1977 17.3159 14.3157 17.3999 14.4108C17.5824 14.617 17.8977 14.6362 18.1039 14.4536C18.5953 14.0186 19.227 13.7724 19.8825 13.7602C20.5386 13.7478 21.1755 13.9716 21.6764 14.3898C22.6108 15.1698 23.1466 16.3144 23.1466 17.5302V23.3258Z" fill="white"/>
</svg>
