<svg width="160" height="27" viewBox="0 0 160 27" fill="none" xmlns="http://www.w3.org/2000/svg">
<g clip-path="url(#clip0)">
<path fill-rule="evenodd" clip-rule="evenodd" d="M31.4593 2.7824C27.3758 0.752223 22.654 0.146893 19.1337 0.0234991V0.684707C22.2527 0.712645 27.4932 1.20389 31.3138 3.84871C31.3138 3.84871 37.5352 6.92192 35.2213 11.5317C33.6231 14.7074 32.5365 14.1323 32.5365 14.1323L25.5218 7.52027L32.3276 5.9208C32.3276 5.9208 28.2629 1.21553 19.1337 1.609V2.23761L22.4193 5.05006L19.1337 5.74852V6.85673L25.2355 5.58321L21.4055 2.91045C24.8013 2.5752 30.0888 5.38066 30.0888 5.38066L22.3442 7.04997L32.4708 16.8679C32.4708 16.8679 37.0847 16.0298 37.8967 11.2593C38.8354 5.71825 31.4593 2.78008 31.4593 2.78008V2.7824ZM19.1337 19.3638V17.3126C20.5423 17.395 21.9554 17.36 23.358 17.2079L19.1337 12.3187V9.03592L27.6269 18.4837C27.6269 18.4837 24.1513 19.4918 19.1337 19.3731V19.3638ZM19.1337 5.04773V3.39472L20.5418 4.79163L19.1337 5.04773ZM19.1337 0.0234991C17.3823 -0.0476769 15.6279 0.00445316 13.8839 0.179491L18.4555 4.65427L16.8667 4.85216L12.4406 0.379712C-1.72724 2.65202 0.0751229 9.99048 0.0751229 9.99048C0.0751229 9.99048 -0.24874 12.7447 4.12575 15.2685C8.70237 17.8724 13.8703 19.2815 19.1455 19.3638V17.3126C16.0148 17.159 11.5511 16.4768 7.17663 14.1975C-0.788511 10.058 3.90515 5.32013 3.90515 5.32013C3.90515 5.32013 5.49161 2.9803 11.929 1.37851L15.8317 5.65772L19.1173 5.04773V3.39472L16.4865 0.775506C17.3668 0.700458 18.2503 0.670152 19.1337 0.684707V0.0234991V0.0234991ZM19.1337 9.02661V12.3093L16.5522 9.32694L6.5735 11.2617C2.46185 4.18397 11.6497 2.51699 11.6497 2.51699L15.2638 6.58666L19.1384 5.75317V6.85673L14.0364 7.92072L10.8471 3.98375C10.8471 3.98375 6.43738 5.32013 8.46505 9.72739L18.0871 7.86484L19.1408 9.02893L19.1337 9.02661ZM19.1337 1.609V2.23761L18.4555 1.64625C18.6761 1.62995 18.9061 1.61831 19.1337 1.609V1.609Z" fill="#008C91"/>
<path d="M39.0186 19.9993H158.796V20.5464H39.0186V19.9993Z" fill="#D29E00"/>
<path fill-rule="evenodd" clip-rule="evenodd" d="M101.125 18.0925V14.244C101.591 14.2107 102.05 14.1127 102.488 13.9529C103.083 13.71 103.574 13.2686 103.875 12.705C104.209 12.1137 104.375 11.1467 104.375 9.80412C104.375 8.03159 104.002 6.81938 103.256 6.16749C102.761 5.736 102.051 5.4473 101.125 5.3014V1.41333C103.082 1.41333 104.665 1.61666 105.872 2.02331C106.991 2.37629 108.014 2.97833 108.862 3.78342C109.637 4.53159 110.223 5.44939 110.576 6.46317C110.934 7.50326 111.114 8.59556 111.108 9.69469C111.108 11.4765 110.845 12.8587 110.317 13.8412C109.792 14.8254 109.04 15.6731 108.123 16.3161C107.225 16.9652 106.198 17.4161 105.11 17.6385C103.799 17.9251 102.462 18.0773 101.12 18.0925H101.125Z" fill="#00438C"/>
<path fill-rule="evenodd" clip-rule="evenodd" d="M135.049 1.41089H142.434L146.259 6.53523L150.005 1.41089H157.296L150.549 9.48737L157.947 18.0924H150.423L146.126 12.7329L141.831 18.0924H134.352L141.845 9.40123L135.049 1.41089Z" fill="#00438C"/>
<path fill-rule="evenodd" clip-rule="evenodd" d="M114.609 1.41089H132.586V4.95905H121.345V7.63181H131.795V11.0426H121.345V14.3137H132.91V18.0924H114.609V1.41089Z" fill="#00438C"/>
<path fill-rule="evenodd" clip-rule="evenodd" d="M69.168 1.41089H87.1424V4.95905H75.9034V7.63181H86.3538V11.0426H75.9034V14.3137H87.4686V18.0924H69.168V1.41089Z" fill="#00438C"/>
<path fill-rule="evenodd" clip-rule="evenodd" d="M101.125 1.41333V5.3014C100.6 5.22519 100.07 5.18861 99.5389 5.19198H97.8726V14.3092H99.5154C100.055 14.3127 100.595 14.2894 101.132 14.2393V18.0878H91.1865V1.41333H101.125Z" fill="#00438C"/>
<path fill-rule="evenodd" clip-rule="evenodd" d="M40.5273 1.41089H49.3632L52.7332 11.5641L56.1127 1.41089H64.9133V18.0924H59.4311V5.37347L55.1997 18.0924H50.2315L46.0072 5.37347V18.0924H40.5273V1.41089Z" fill="#00438C"/>
<path d="M39.1447 23.375H40.2384L41.9609 26.0524H41.9914L43.6999 23.375H44.7936V26.9115H44.059V24.0036H44.0355L42.2074 26.9115H41.7169L39.8887 24.0036H39.8723V26.9115H39.1377L39.1447 23.375Z" fill="#008C91"/>
<path d="M47.6641 23.375H51.1632V23.8243H48.3986V24.879H50.9802V25.3284H48.3986V26.4622H51.3111V26.9115H47.6734L47.6641 23.375Z" fill="#008C91"/>
<path d="M53.7492 23.3751H55.6408C55.9783 23.3712 56.3154 23.3993 56.6476 23.4589C56.9058 23.5087 57.1577 23.5868 57.3986 23.6917C57.5893 23.7749 57.7672 23.8846 57.9266 24.0177C58.0557 24.1284 58.1679 24.257 58.2598 24.3995C58.3363 24.5205 58.3955 24.6513 58.4359 24.7883C58.4687 24.9051 58.486 25.0256 58.4875 25.1469C58.4864 25.3789 58.4206 25.6061 58.2974 25.8034C58.1538 26.0315 57.9606 26.2249 57.7318 26.3691C57.4423 26.5501 57.1254 26.6838 56.7931 26.7649C56.3746 26.8714 55.9437 26.9223 55.5117 26.9163H53.7422L53.7492 23.3751ZM54.4861 26.4623H55.4108C55.7078 26.4638 56.0042 26.4357 56.2955 26.3785C56.5503 26.3317 56.797 26.2486 57.0278 26.1317C57.2227 26.0332 57.3928 25.8923 57.5253 25.7196C57.6483 25.5522 57.7126 25.3493 57.7083 25.1422C57.7037 25.0064 57.6751 24.8724 57.6239 24.7464C57.5557 24.5785 57.4469 24.4297 57.307 24.3134C57.1147 24.1588 56.8951 24.0411 56.6593 23.9665C56.312 23.8612 55.9497 23.8133 55.5868 23.8244H54.4861V26.4623Z" fill="#008C91"/>
<path d="M61.0762 23.375H61.8107V26.9115H61.0762V23.375Z" fill="#008C91"/>
<path d="M68.5091 24.1386C68.3385 23.999 68.1402 23.8967 67.9271 23.8383C67.6911 23.7682 67.4459 23.7329 67.1996 23.7335C66.9184 23.7298 66.6383 23.7682 66.3688 23.8476C66.1412 23.9129 65.9268 24.0169 65.7351 24.1549C65.5656 24.2785 65.4254 24.4374 65.3245 24.6205C65.2285 24.7922 65.1784 24.9854 65.1789 25.1816C65.1792 25.3673 65.2268 25.55 65.3174 25.7125C65.4162 25.8858 65.5525 26.0352 65.7164 26.1502C65.9077 26.2872 66.1223 26.389 66.35 26.4505C66.6266 26.5264 66.9126 26.5633 67.1996 26.5599C67.4776 26.5648 67.7545 26.523 68.0186 26.4365C68.2401 26.3609 68.4437 26.2413 68.617 26.085L69.2366 26.39C69.1693 26.4476 69.0979 26.5006 69.023 26.5483C68.8943 26.6288 68.7584 26.6974 68.617 26.7532C68.4191 26.8299 68.215 26.8899 68.0069 26.9324C67.7366 26.9868 67.4613 27.0126 67.1855 27.0093C66.7932 27.0141 66.4025 26.9608 66.0262 26.8509C65.7148 26.7535 65.4216 26.6064 65.1578 26.4156C64.9315 26.2626 64.7417 26.0623 64.6016 25.8289C64.4792 25.6295 64.4127 25.4012 64.4092 25.1677C64.408 24.9013 64.4803 24.6396 64.6181 24.411C64.7628 24.1711 64.9601 23.9666 65.1954 23.8127C65.4682 23.6326 65.7697 23.4996 66.0872 23.4192C66.4618 23.3227 66.8477 23.2757 67.2348 23.2795C67.5904 23.2801 67.9444 23.3255 68.2885 23.4145C68.598 23.4878 68.8868 23.6295 69.1333 23.829L68.5091 24.1386Z" fill="#008C91"/>
<path d="M71.6562 23.375H72.3908V26.9115H71.6562V23.375Z" fill="#008C91"/>
<path d="M75.3143 23.375H76.2788L79.2639 26.2806H79.2804V23.375H80.0149V26.9115H79.0762L76.0605 24.0036H76.0441V26.9115H75.3096L75.3143 23.375Z" fill="#008C91"/>
<path d="M84.6365 23.375H85.303L87.6217 26.9115H86.7627L86.2206 26.0361H83.6391L83.1017 26.9115H82.2451L84.6365 23.375ZM85.9531 25.617L84.9416 23.9873H84.9275L83.8996 25.617H85.9531Z" fill="#008C91"/>
<path d="M93.5166 23.375H97.0157V23.8243H94.2582V24.879H96.8397V25.3284H94.2582V26.4622H97.1612V26.9115H93.5236L93.5166 23.375Z" fill="#008C91"/>
<path d="M100.982 25.0536L99.1582 23.375H100.102L101.51 24.7323L102.904 23.375H103.821L102.014 25.0466L104.004 26.9092H103.04L101.486 25.3773L99.9256 26.9092H99.0127L100.982 25.0536Z" fill="#008C91"/>
<path d="M107.352 23.8243H105.605V23.375H109.83V23.8243H108.086V26.9115H107.352V23.8243Z" fill="#008C91"/>
<path d="M112.141 23.375H115.64V23.8243H112.875V24.879H115.457V25.3284H112.875V26.4622H115.776V26.9115H112.141V23.375Z" fill="#008C91"/>
<path d="M118.351 23.375H120.256C120.545 23.3679 120.833 23.3992 121.113 23.4681C121.303 23.514 121.483 23.5928 121.646 23.701C121.763 23.7824 121.857 23.8932 121.918 24.0222C121.965 24.1303 121.991 24.2466 121.993 24.3645C121.992 24.4793 121.961 24.5918 121.901 24.6904C121.834 24.8025 121.744 24.8993 121.636 24.9745C121.509 25.0682 121.367 25.1413 121.216 25.191C121.037 25.2514 120.851 25.2874 120.662 25.2981L122.199 26.9115H121.282L119.904 25.3516H119.085V26.9115H118.351V23.375ZM119.085 24.9326H120.05C120.193 24.9326 120.334 24.9326 120.474 24.9116C120.602 24.8978 120.728 24.8697 120.85 24.8278C120.951 24.7931 121.041 24.7338 121.113 24.6555C121.177 24.5712 121.211 24.4687 121.211 24.3633C121.211 24.2579 121.177 24.1554 121.113 24.0711C121.041 23.9928 120.951 23.9336 120.85 23.8988C120.729 23.8566 120.603 23.8293 120.474 23.8174C120.333 23.8014 120.192 23.7936 120.05 23.7941H119.085V24.9326Z" fill="#008C91"/>
<path d="M124.558 23.375H125.522L128.508 26.2806H128.522V23.375H129.256V26.9115H128.318L125.302 24.0036H125.285V26.9115H124.551L124.558 23.375Z" fill="#008C91"/>
<path d="M133.882 23.375H134.548L136.867 26.9115H136.01L135.466 26.0361H132.884L132.347 26.9115H131.49L133.882 23.375ZM135.198 25.617L134.187 23.9873H134.173L133.147 25.617H135.198Z" fill="#008C91"/>
<path d="M142.922 26.1829C143.065 26.3192 143.24 26.4184 143.431 26.4716C143.639 26.5322 143.854 26.5628 144.07 26.5624C144.196 26.5625 144.322 26.5501 144.445 26.5252C144.565 26.502 144.682 26.4645 144.793 26.4134C144.89 26.3684 144.978 26.3052 145.051 26.2271C145.115 26.1583 145.15 26.0674 145.149 25.9734C145.15 25.9078 145.132 25.8433 145.096 25.7879C145.061 25.7325 145.01 25.6885 144.95 25.6614C144.794 25.581 144.628 25.5207 144.457 25.4821C144.26 25.4332 144.046 25.3867 143.814 25.3424C143.594 25.3005 143.378 25.2374 143.171 25.1539C142.985 25.0819 142.817 24.9725 142.676 24.8326C142.608 24.7589 142.556 24.6726 142.522 24.5787C142.488 24.4847 142.473 24.385 142.479 24.2854C142.482 24.168 142.518 24.0538 142.582 23.9548C142.664 23.8253 142.775 23.7162 142.906 23.6359C143.083 23.5307 143.275 23.4523 143.476 23.4031C143.75 23.3327 144.033 23.2998 144.316 23.3053C144.601 23.3047 144.886 23.332 145.166 23.3868C145.424 23.4355 145.665 23.5467 145.87 23.7104L145.271 24.0643C145.162 23.9567 145.029 23.8768 144.882 23.8314C144.697 23.7711 144.503 23.742 144.309 23.7453C144.138 23.7418 143.967 23.7598 143.8 23.7988C143.684 23.8249 143.574 23.8706 143.474 23.9339C143.402 23.978 143.342 24.0387 143.3 24.1108C143.275 24.1546 143.259 24.2029 143.253 24.2528C143.248 24.3027 143.252 24.3533 143.266 24.4016C143.28 24.4499 143.303 24.4949 143.335 24.5341C143.366 24.5734 143.406 24.6059 143.45 24.63C143.605 24.7178 143.772 24.7837 143.945 24.8256C144.14 24.8745 144.356 24.9187 144.588 24.9606C144.807 24.9975 145.022 25.0528 145.231 25.1259C145.413 25.1906 145.58 25.2894 145.724 25.4169C145.792 25.4812 145.845 25.5592 145.879 25.6456C145.914 25.732 145.929 25.8247 145.924 25.9175C145.926 26.0848 145.874 26.2484 145.773 26.3831C145.667 26.5259 145.53 26.6436 145.372 26.7277C145.185 26.8277 144.984 26.8998 144.776 26.9419C144.534 26.9936 144.287 27.0185 144.039 27.0164C143.706 27.0179 143.374 26.978 143.051 26.8977C142.777 26.836 142.523 26.7089 142.31 26.5275L142.922 26.1829Z" fill="#008C91"/>
<path d="M148.916 26.9396C148.79 26.9436 148.666 26.9104 148.56 26.8441C148.515 26.823 148.478 26.79 148.452 26.7488C148.426 26.7076 148.412 26.6599 148.412 26.6113C148.412 26.5627 148.426 26.515 148.452 26.4738C148.478 26.4326 148.515 26.3996 148.56 26.3785C148.667 26.3172 148.788 26.2849 148.912 26.2849C149.035 26.2849 149.157 26.3172 149.264 26.3785C149.308 26.3996 149.345 26.4326 149.371 26.4738C149.397 26.515 149.411 26.5627 149.411 26.6113C149.411 26.6599 149.397 26.7076 149.371 26.7488C149.345 26.79 149.308 26.823 149.264 26.8441C149.16 26.9086 149.039 26.9418 148.916 26.9396V26.9396Z" fill="#008C91"/>
<path d="M153.907 23.375H154.571L156.892 26.9115H156.034L155.491 26.0361H152.91L152.372 26.9115H151.521L153.907 23.375ZM155.224 25.617L154.212 23.9873H154.198L153.17 25.617H155.224Z" fill="#008C91"/>
<path d="M159.5 26.9394C159.375 26.9437 159.25 26.9104 159.144 26.8439C159.099 26.8235 159.061 26.7907 159.034 26.7494C159.007 26.7081 158.993 26.6601 158.993 26.6111C158.993 26.562 159.007 26.514 159.034 26.4728C159.061 26.4315 159.099 26.3987 159.144 26.3783C159.25 26.3156 159.372 26.2825 159.496 26.2825C159.62 26.2825 159.741 26.3156 159.848 26.3783C159.893 26.3987 159.931 26.4315 159.957 26.4728C159.984 26.514 159.998 26.562 159.998 26.6111C159.998 26.6601 159.984 26.7081 159.957 26.7494C159.931 26.7907 159.893 26.8235 159.848 26.8439C159.744 26.9088 159.623 26.942 159.5 26.9394V26.9394Z" fill="#008C91"/>
</g>
<defs>
<clipPath id="clip0">
<rect width="160" height="27" fill="white"/>
</clipPath>
</defs>
</svg>
