<svg width="104" height="104" viewBox="0 0 104 104" fill="none" xmlns="http://www.w3.org/2000/svg">
<path d="M21.125 13H22.75V16.25H9.75V32.5V48.75V73.125V94.25H61.75V81.25H68.25V99.125C68.25 100.019 67.5188 100.75 66.625 100.75H4.875C3.98125 100.75 3.25 100.019 3.25 99.125V11.375C3.25 10.4812 3.98125 9.75 4.875 9.75H19.5V11.375C19.5 12.2688 20.2312 13 21.125 13Z" fill="#FFC278"/>
<path d="M50.375 13C51.2688 13 52 12.2688 52 11.375V9.75H66.625C67.5188 9.75 68.25 10.4812 68.25 11.375V50.375C66.1375 49.6762 63.96 49.1887 61.75 48.9612V48.945V32.5V16.25H48.75V13H50.375Z" fill="#FFC278"/>
<path d="M61.75 81.25V94.25H9.75V73.125L11.5375 74.6037C14.105 76.7487 17.03 78.4062 20.1175 79.5275C23.2213 80.665 26.52 81.25 29.8675 81.25C33.7512 81.25 37.5862 80.47 41.1612 78.9262L47.125 76.375C51.35 79.5438 56.4688 81.25 61.75 81.25Z" fill="#E6E9ED"/>
<path d="M61.75 32.5V48.945V48.9612C60.58 48.815 59.3937 48.75 58.2075 48.75C55.7862 48.75 53.365 49.0263 51.0087 49.5788V49.5625C48.0025 47.19 44.6225 45.37 41.0475 44.135C37.4725 42.9 33.7025 42.25 29.8675 42.25C23.1075 42.25 16.4938 44.2488 10.8713 48.0025L9.75 48.75V32.5H14.625H30.875H34.125H56.875H61.75Z" fill="#E6E9ED"/>
<path d="M61.75 16.25V32.5H56.875H34.125H30.875H14.625H9.75V16.25H22.75V24.375C22.75 25.2688 23.4812 26 24.375 26H47.125C48.0188 26 48.75 25.2688 48.75 24.375V16.25H61.75Z" fill="#E6E9ED"/>
<path d="M48.75 16.25V24.375C48.75 25.2688 48.0188 26 47.125 26H24.375C23.4812 26 22.75 25.2688 22.75 24.375V16.25V13H29.25V19.5H42.25V13H48.75V16.25Z" fill="#85A3C8"/>
<path d="M52 9.75V11.375C52 12.2688 51.2688 13 50.375 13H48.75H42.25H29.25H22.75H21.125C20.2312 13 19.5 12.2688 19.5 11.375V9.75V4.875C19.5 3.98125 20.2312 3.25 21.125 3.25H50.375C51.2688 3.25 52 3.98125 52 4.875V9.75Z" fill="#85A3C8"/>
<path d="M81.2662 22.7501H81.2499L80.7787 22.5063C79.0724 21.6613 77.9999 19.9226 77.9999 18.0213C77.9999 16.6401 78.5524 15.3726 79.4624 14.4626C80.3724 13.5526 81.6399 13.0001 83.0212 13.0001H89.3749C95.6637 13.0001 100.75 18.0863 100.75 24.3751C100.75 26.5363 100.587 28.6976 100.262 30.8426L94.7212 67.4376C93.5187 75.3838 86.6937 81.2501 78.6499 81.2501H68.2499H61.7499C56.4687 81.2501 51.3499 79.5438 47.1249 76.3751L41.1612 78.9263C37.5862 80.47 33.7512 81.2501 29.8674 81.2501C26.5199 81.2501 23.2212 80.665 20.1174 79.5275C17.0299 78.4063 14.1049 76.7488 11.5374 74.6038L9.74992 73.1251V48.7501L10.8712 48.0026C16.4937 44.2488 23.1074 42.2501 29.8674 42.2501C33.7024 42.2501 37.4724 42.9001 41.0474 44.1351C44.6224 45.3701 48.0024 47.1901 51.0087 49.5626V49.5788C53.3649 49.0263 55.7862 48.7501 58.2074 48.7501C59.3937 48.7501 60.5799 48.8151 61.7499 48.9613C63.9599 49.1888 66.1374 49.6763 68.2499 50.3751C68.5099 50.4401 68.7537 50.5213 69.0137 50.6188C72.4587 51.8376 75.6924 53.6576 78.5687 55.9976C79.3324 51.0901 80.8437 46.2963 83.0862 41.8276L87.2462 33.5076C87.5712 32.8413 87.7499 32.1101 87.7499 31.3626C87.7499 29.1688 86.2549 27.2513 84.1262 26.7151L84.0124 26.6988C82.3874 26.2926 81.2499 24.8301 81.2499 23.1563C81.2499 23.0263 81.2499 22.8801 81.2662 22.7501Z" fill="#F6E2C1"/>
<path d="M89.375 11.375H83.0212C79.3569 11.375 76.375 14.3569 76.375 18.0212C76.375 20.4084 77.6344 22.5566 79.6754 23.7478C79.9224 25.9123 81.4726 27.7322 83.7249 28.2929C85.1386 28.6471 86.125 29.9114 86.125 31.369C86.125 31.8581 86.0096 32.3489 85.7902 32.786L81.6335 41.0995C79.729 44.9101 78.3412 48.9759 77.4637 53.1489C75.1042 51.519 72.5514 50.2027 69.875 49.2196V11.375C69.875 9.58262 68.4174 8.125 66.625 8.125H53.625V4.875C53.625 3.08262 52.1674 1.625 50.375 1.625H21.125C19.3326 1.625 17.875 3.08262 17.875 4.875V8.125H4.875C3.08262 8.125 1.625 9.58262 1.625 11.375V99.125C1.625 100.917 3.08262 102.375 4.875 102.375H66.625C68.4174 102.375 69.875 100.917 69.875 99.125V82.875H78.6516C87.5583 82.875 94.991 76.4823 96.3235 67.6764L101.868 31.0798C102.206 28.8665 102.375 26.6094 102.375 24.375C102.375 17.2071 96.5429 11.375 89.375 11.375ZM66.625 11.375V48.2008C65.5558 47.9261 64.4686 47.7149 63.375 47.5459V14.625H50.375C52.1674 14.625 53.625 13.1674 53.625 11.375H66.625ZM51.3825 47.8351C45.2026 43.1941 37.5993 40.625 29.861 40.625C23.3074 40.625 16.9585 42.419 11.375 45.7876V17.875H21.125V24.375C21.125 26.1674 22.5826 27.625 24.375 27.625H47.125C48.9174 27.625 50.375 26.1674 50.375 24.375V17.875H60.125V47.2079C59.4864 47.1721 58.8478 47.125 58.2059 47.125C55.8968 47.125 53.6185 47.3752 51.3825 47.8351ZM11.375 76.531C16.6595 80.6146 23.1725 82.875 29.8708 82.875C33.9918 82.875 38.0039 82.0511 41.7934 80.4277L46.9202 78.2291C50.804 80.9218 55.4125 82.511 60.125 82.8116V92.625H11.375V76.531ZM30.875 14.625H40.625V17.875H30.875V14.625ZM43.875 21.125V14.625H47.125V24.375H24.375V14.625H27.625V21.125H43.875ZM21.125 4.875H50.375L50.3783 11.375H21.125V4.875ZM66.625 99.125H4.875V11.375H17.875C17.875 13.1674 19.3326 14.625 21.125 14.625H8.125V95.875H63.375V82.875H66.625V99.125ZM98.657 30.5955L93.1125 67.1921C92.0205 74.3957 85.9398 79.625 78.6516 79.625H61.75C56.8604 79.625 52.013 78.0098 48.1 75.075L47.3493 74.5111L40.5145 77.441C37.1312 78.8905 33.5498 79.625 29.8708 79.625C23.5625 79.625 17.42 77.4004 12.5726 73.3623L11.375 72.3629V49.6194L11.7812 49.3496C17.1535 45.7681 23.4033 43.875 29.861 43.875C36.036 43.875 42.1167 45.6755 47.3135 48.9661C46.7529 49.1579 46.1874 49.3269 45.6349 49.5479L43.2721 50.492L44.4779 53.5096L46.8423 52.5655C50.4709 51.1111 54.2945 50.375 58.2059 50.375C64.9399 50.375 71.513 52.6419 76.8414 56.7353C76.544 58.9371 76.375 61.1552 76.375 63.375H79.625C79.625 56.1844 81.3248 48.9856 84.5406 42.5539L88.6974 34.2404C89.1394 33.3515 89.375 32.3603 89.375 31.369C89.375 28.418 87.3763 25.8554 84.4074 25.116C83.5055 24.8885 82.875 24.0809 82.875 23.1497C82.875 22.0334 83.7834 21.125 84.8997 21.125H89.375V17.875H84.8997C83.0602 17.875 81.4434 18.824 80.4992 20.2556C79.9581 19.6462 79.625 18.8711 79.625 18.0212C79.625 16.1492 81.1492 14.625 83.0212 14.625H89.375C94.7521 14.625 99.125 18.9979 99.125 24.375C99.125 26.4453 98.9674 28.5399 98.657 30.5955Z" fill="black"/>
<path d="M53.625 86.125H56.875V89.375H53.625V86.125Z" fill="black"/>
<path d="M47.125 86.125H50.375V89.375H47.125V86.125Z" fill="black"/>
<path d="M40.625 86.125H43.875V89.375H40.625V86.125Z" fill="black"/>
<path d="M34.125 86.125H37.375V89.375H34.125V86.125Z" fill="black"/>
<path d="M27.625 86.125H30.875V89.375H27.625V86.125Z" fill="black"/>
<path d="M21.125 86.125H24.375V89.375H21.125V86.125Z" fill="black"/>
<path d="M14.625 30.875H30.875V34.125H14.625V30.875Z" fill="black"/>
<path d="M34.125 30.875H56.875V34.125H34.125V30.875Z" fill="black"/>
<path d="M53.625 37.375H56.875V40.625H53.625V37.375Z" fill="black"/>
<path d="M47.125 37.375H50.375V40.625H47.125V37.375Z" fill="black"/>
<path d="M40.625 37.375H43.875V40.625H40.625V37.375Z" fill="black"/>
</svg>
