<svg width="104" height="104" viewBox="0 0 104 104" fill="none" xmlns="http://www.w3.org/2000/svg">
<g clip-path="url(#clip0)">
<path d="M95.8158 22.2265L81.7748 8.18554C80.8648 7.27552 80.8648 5.80018 81.7748 4.89036L84.459 2.2062C85.369 1.29618 86.8443 1.29618 87.7541 2.2062L101.795 16.2472C102.705 17.1572 102.705 18.6325 101.795 19.5423L99.111 22.2265C98.2009 23.1363 96.7258 23.1363 95.8158 22.2265V22.2265Z" fill="#C5D3DD"/>
<path d="M101.796 19.5426L99.11 22.2262C98.2 23.1364 96.7257 23.1364 95.8157 22.2262L92.9956 19.4061C93.9056 20.3164 95.382 20.3164 96.292 19.4061L98.9756 16.7226C99.8858 15.8124 99.8858 14.3362 98.9756 13.4282L101.796 16.246C102.706 17.1563 102.706 18.6324 101.796 19.5426Z" fill="#9FACBA"/>
<path d="M29.071 83.8799L20.1213 74.9302C18.8137 73.6227 18.8137 71.5026 20.1213 70.1948L64.2568 26.0593L77.9417 39.7442L33.8064 83.8799C32.4986 85.1875 30.3785 85.1875 29.071 83.8799V83.8799Z" fill="#C9DBFD"/>
<path d="M77.941 39.7448L33.8067 83.8791C32.4996 85.1883 30.3779 85.1883 29.0707 83.8791L26.3726 81.1809C27.6797 82.4901 29.8014 82.4901 31.1085 81.1809L75.2428 37.0466L77.941 39.7448Z" fill="#C9DBFD"/>
<path d="M29.071 83.8799L20.1213 74.9302C18.8137 73.6226 18.8137 71.5025 20.1213 70.1948L48.672 41.644L62.3569 55.3289L33.8064 83.8799C32.4986 85.1874 30.3785 85.1874 29.071 83.8799V83.8799Z" fill="#FFC278"/>
<path d="M62.3567 55.3289L33.8068 83.879C32.4997 85.1882 30.378 85.1882 29.0708 83.879L26.373 81.1813C27.6802 82.4904 29.8019 82.4904 31.109 81.1813L59.6592 52.6311L62.3567 55.3289Z" fill="#FFAC47"/>
<path d="M13.622 93.0514L10.9502 90.3796C10.529 89.9583 10.529 89.2752 10.9502 88.8539L17.2038 82.6003L21.4013 86.7978L15.1477 93.0514C14.7262 93.4727 14.0433 93.4727 13.622 93.0514V93.0514Z" fill="#FFC278"/>
<path d="M21.4012 86.7968L15.1484 93.0518C14.7269 93.4733 14.0428 93.4733 13.6213 93.0518L11.5811 91.0093C12.0025 91.4308 12.6847 91.4308 13.1062 91.0093L19.3609 84.7566L21.4012 86.7968Z" fill="#FFAC47"/>
<path d="M21.3919 86.7888L17.2121 82.609C16.3766 81.7735 16.3766 80.4192 17.2121 79.5838L20.9933 75.8025L28.1984 83.0075L24.4171 86.7888C23.5816 87.624 22.2271 87.624 21.3919 86.7888Z" fill="#C9DBFD"/>
<path d="M28.1995 83.0078L24.4185 86.7888C23.5816 87.6237 22.2277 87.6237 21.3929 86.7888L18.8354 84.2314C19.6825 84.8402 20.8696 84.7628 21.6289 84.0013L25.412 80.2202L28.1995 83.0078Z" fill="#AECAFC"/>
<path d="M86.1753 12.5837L91.4021 17.8105L58.2449 50.9678L53.0181 45.741L86.1753 12.5837Z" fill="#F9F3F1"/>
<path d="M88.7891 15.197L91.4025 17.8105L58.2453 50.9677L55.6318 48.3543L88.7891 15.197Z" fill="#EFE2DD"/>
<path d="M48.6729 41.6348L62.3557 55.3176L55.4478 62.2256L41.7649 48.5427L48.6729 41.6348Z" fill="#8D9CA8"/>
<path d="M59.6587 52.6191L62.3566 55.3171L55.4487 62.225L52.7508 59.5271L59.6587 52.6191Z" fill="#7A8C98"/>
<path d="M78.8309 40.3499L63.6512 25.1702C62.8005 24.3195 62.8005 22.9403 63.6512 22.0898L67.5592 18.1817C68.4099 17.331 69.7892 17.331 70.6397 18.1817L85.8194 33.3614C86.6701 34.2122 86.6701 35.5914 85.8194 36.4419L81.9114 40.3499C81.0607 41.2006 79.6816 41.2006 78.8309 40.3499V40.3499Z" fill="#8D9CA8"/>
<path d="M85.8187 36.4422L81.9115 40.3495C81.0604 41.2006 79.682 41.2006 78.8309 40.3495L75.9253 37.4439C76.7784 38.2542 78.1305 38.2399 78.9651 37.4053L82.8744 33.496C83.6989 32.6734 83.7255 31.352 82.9518 30.4968L85.8185 33.3616C86.6699 34.2129 86.6699 35.5913 85.8187 36.4422V36.4422Z" fill="#7A8C98"/>
<path d="M102.874 15.1698L100.354 12.6497C99.7587 12.0548 98.7941 12.0546 98.1993 12.6497C97.6041 13.2447 97.6041 14.2092 98.1991 14.8041L100.719 17.3242C101.034 17.6386 101.034 18.1503 100.719 18.4649L98.0348 21.1491C97.7301 21.4538 97.1989 21.4538 96.8942 21.1491L82.8532 7.10813C82.5386 6.79369 82.5386 6.282 82.8532 5.96735L85.5374 3.28319C85.8516 2.96854 86.3637 2.96875 86.678 3.28319L93.1275 9.73278C93.7225 10.3277 94.687 10.3279 95.2821 9.73278C95.8771 9.13781 95.8771 8.17314 95.2821 7.57838L88.8326 1.12879C88.1047 0.400979 87.1368 0 86.1076 0C85.0783 0 84.1104 0.400979 83.3826 1.12879L80.6984 3.81296C79.1961 5.31531 79.1961 7.76018 80.6984 9.26273L84.0279 12.592L75.6167 21.0033L71.718 17.1046C71.0189 16.4054 70.0891 16.0205 69.1003 16.0205C68.1117 16.0205 67.1821 16.4056 66.483 17.1046L62.5747 21.0126C61.2436 22.3441 61.1433 24.4439 62.268 25.8946L56.6582 31.5045C56.0632 32.0994 56.0632 33.0641 56.6582 33.6589C57.2533 34.2538 58.2178 34.2538 58.8128 33.6589L64.2577 28.214L66.3318 30.2881L52.9015 43.7183L50.8273 41.6441L53.832 38.6394C54.427 38.0445 54.427 37.0798 53.832 36.485C53.2366 35.8898 52.272 35.8901 51.6774 36.485L19.0449 69.1177C18.1248 70.0379 17.618 71.2613 17.618 72.5626C17.618 73.7667 18.0527 74.9036 18.8467 75.796L16.1361 78.5066C15.0963 79.5464 14.8174 81.0601 15.2919 82.3581L9.87383 87.7762C9.38225 88.2676 9.11148 88.9212 9.11148 89.6164C9.11148 90.3115 9.38225 90.9649 9.87362 91.4565L10.1322 91.7151L0.448179 101.399C-0.146789 101.994 -0.146789 102.959 0.448179 103.554C0.745562 103.851 1.13557 104 1.52538 104C1.91519 104 2.3052 103.851 2.60258 103.554L12.2866 93.8697L12.5452 94.1283C13.0526 94.6355 13.7189 94.889 14.3851 94.889C15.0516 94.889 15.7181 94.6353 16.2253 94.1281L21.6436 88.7098C22.0503 88.8585 22.4772 88.9367 22.9052 88.9367C23.8433 88.9367 24.7811 88.5796 25.4951 87.8656L28.2094 85.1514C29.1287 85.9677 30.2823 86.3815 31.4391 86.3815C32.6868 86.3815 33.9344 85.9066 34.884 84.957L78.1071 41.7337C78.7715 42.2486 79.5706 42.5093 80.3716 42.5093C81.3194 42.5093 82.2674 42.1485 82.9893 41.427L86.8971 37.519C88.3402 36.0755 88.3402 33.7271 86.8971 32.2841L82.9985 28.3854L91.4097 19.9742L94.739 23.3035C95.4668 24.0313 96.4347 24.4323 97.464 24.4323C98.4932 24.4323 99.4611 24.0315 100.189 23.3035L102.873 20.6193C104.376 19.117 104.376 16.6723 102.874 15.1698ZM68.4864 32.4425L71.5596 35.5157L58.2479 48.8274L55.1747 45.7543L68.4864 32.4425ZM14.3856 91.6596L12.3425 89.6166L17.2044 84.7546L19.2475 86.7977L14.3856 91.6596ZM23.3412 85.7116C23.1843 85.8684 23.0011 85.892 22.9056 85.892C22.8104 85.892 22.6271 85.8686 22.4703 85.7116L18.2905 81.5318C18.1337 81.375 18.1101 81.1917 18.1101 81.0965C18.1101 81.0012 18.1337 80.818 18.2905 80.6612L20.9944 77.9573L26.0448 83.0077L23.3412 85.7116ZM32.73 82.8026C32.0187 83.5141 30.8608 83.5143 30.1491 82.8026L21.1993 73.8528C20.4878 73.1413 20.4878 71.9834 21.1993 71.2719L41.7638 50.7074L53.2941 62.2379L32.73 82.8026ZM55.4489 60.0837L43.9184 48.5532L48.6729 43.7987L60.2034 55.329L55.4489 60.0837ZM62.358 53.1746L60.2838 51.1004L73.714 37.6703L75.7881 39.7444L62.358 53.1746ZM84.7429 34.4389C84.9983 34.6942 84.9983 35.1096 84.7429 35.365L80.8353 39.2728C80.5798 39.5281 80.1644 39.5281 79.9088 39.2728L64.7293 24.0931C64.474 23.8377 64.474 23.4223 64.7293 23.167L68.6374 19.259C68.8921 19.0038 69.3077 19.0034 69.5632 19.259L84.7429 34.4389ZM80.8443 26.231L77.7711 23.1579L86.1823 14.7466L89.2555 17.8198L80.8443 26.231Z" fill="black"/>
</g>
<defs>
<clipPath id="clip0">
<rect width="104" height="104" fill="white"/>
</clipPath>
</defs>
</svg>
