<svg width="104" height="104" viewBox="0 0 104 104" fill="none" xmlns="http://www.w3.org/2000/svg">
<path d="M97.4288 78.9208H13.3011C12.3718 78.9208 11.6187 78.1677 11.6187 77.2384V7.23804H99.1113V77.2384C99.1113 78.1677 98.3581 78.9208 97.4288 78.9208Z" fill="#EDF6FF"/>
<path d="M94.4393 7.23804V77.2384C94.4393 78.1677 93.6861 78.9208 92.7568 78.9208H97.4287C98.358 78.9208 99.1112 78.1675 99.1112 77.2384V7.23804H94.4393Z" fill="#C9DBFD"/>
<path d="M89.0155 18.3489H82.3804C80.5391 18.3489 78.9671 19.7876 78.9214 21.6283C78.8991 22.5268 79.2296 23.3466 79.7839 23.9612C80.3778 24.62 80.3374 25.6333 79.7102 26.2604L72.1901 33.7805L61.109 22.6996C59.7948 21.3854 57.6642 21.3856 56.3502 22.6996L39.5247 39.5251C38.2105 40.8391 38.2105 42.9699 39.5247 44.2839C40.1818 44.941 41.0429 45.2694 41.9041 45.2694C42.7654 45.2694 43.6266 44.9408 44.2835 44.2839L58.7296 29.838L69.8107 40.9187C71.1249 42.2327 73.2555 42.2327 74.5695 40.9187L84.469 31.0192C85.0962 30.392 86.1096 30.3515 86.7682 30.9455C87.3828 31.4998 88.2026 31.8303 89.101 31.8079C90.9418 31.7622 92.3805 30.1903 92.3805 28.3489V21.714C92.3807 19.8557 90.8741 18.3489 89.0155 18.3489Z" fill="#AECAFC"/>
<path d="M100.851 8.25358H9.87842C8.98101 8.25358 8.25342 7.52598 8.25342 6.62858V3.14844C8.25342 2.25103 8.98101 1.52344 9.87842 1.52344H100.851C101.749 1.52344 102.476 2.25103 102.476 3.14844V6.62858C102.476 7.52619 101.749 8.25358 100.851 8.25358Z" fill="#817D84"/>
<path d="M100.851 1.52344H96.1792C97.0766 1.52344 97.8042 2.25103 97.8042 3.14844V6.62858C97.8042 7.52598 97.0766 8.25358 96.1792 8.25358H100.851C101.748 8.25358 102.476 7.52598 102.476 6.62858V3.14844C102.476 2.25103 101.748 1.52344 100.851 1.52344V1.52344Z" fill="#756E79"/>
<path d="M87.3331 66.4858H77.2378V46.8948C77.2378 45.9974 77.9654 45.2698 78.8628 45.2698H85.7081C86.6055 45.2698 87.3331 45.9974 87.3331 46.8948V66.4858Z" fill="#C9DBFD"/>
<path d="M53.6817 66.4859H43.5864V53.625C43.5864 52.7276 44.314 52 45.2114 52H52.0567C52.9541 52 53.6817 52.7276 53.6817 53.625V66.4859Z" fill="#C9DBFD"/>
<path d="M70.5074 66.4857H60.4121V56.9949C60.4121 56.0975 61.1397 55.3699 62.0371 55.3699H68.8824C69.7798 55.3699 70.5074 56.0975 70.5074 56.9949V66.4857Z" fill="#FFC278"/>
<path d="M53.6817 66.4859H43.5864V53.625C43.5864 52.7276 44.314 52 45.2114 52H52.0567C52.9541 52 53.6817 52.7276 53.6817 53.625V66.4859Z" fill="#C9DBFD"/>
<path d="M70.5074 66.4857H60.4121V56.9949C60.4121 56.0975 61.1397 55.3699 62.0371 55.3699H68.8824C69.7798 55.3699 70.5074 56.0975 70.5074 56.9949V66.4857Z" fill="#FFC278"/>
<path d="M85.708 45.2698H81.0361C81.9335 45.2698 82.6611 45.9974 82.6611 46.8948V66.4858H87.333V46.8948C87.333 45.9972 86.6054 45.2698 85.708 45.2698V45.2698Z" fill="#AECAFC"/>
<path d="M52.0571 52H47.3853C48.2827 52 49.0103 52.7276 49.0103 53.625V66.4859H53.6821V53.625C53.6821 52.7276 52.9547 52 52.0571 52Z" fill="#AECAFC"/>
<path d="M68.8828 55.3699H64.2109C65.1083 55.3699 65.8359 56.0975 65.8359 56.9949V66.4857H70.5078V56.9949C70.5078 56.0973 69.7802 55.3699 68.8828 55.3699Z" fill="#FFAC47"/>
<path d="M90.7558 72.2101H40.1641C39.2667 72.2101 38.5391 71.4825 38.5391 70.5851V67.105C38.5391 66.2076 39.2667 65.48 40.1641 65.48H90.7558C91.6532 65.48 92.3808 66.2076 92.3808 67.105V70.5851C92.3808 71.4827 91.6532 72.2101 90.7558 72.2101Z" fill="#817D84"/>
<path d="M90.7559 65.48H86.084C86.9814 65.48 87.709 66.2076 87.709 67.105V70.5851C87.709 71.4825 86.9814 72.2101 86.084 72.2101H90.7559C91.6533 72.2101 92.3809 71.4825 92.3809 70.5851V67.105C92.3809 66.2076 91.6533 65.48 90.7559 65.48Z" fill="#756E79"/>
<path d="M35.1741 100.794V92.3812C35.1741 86.8056 30.6541 82.2859 25.0787 82.2859H11.6183C6.04289 82.2859 1.52295 86.8056 1.52295 92.3812V100.794C1.52295 101.723 2.27634 102.477 3.20543 102.477H33.4914C34.4207 102.477 35.1741 101.723 35.1741 100.794V100.794Z" fill="#FFC278"/>
<path d="M25.0786 82.2859H20.4067C25.9823 82.2859 30.502 86.8056 30.502 92.3812V100.794C30.502 101.723 29.7487 102.477 28.8196 102.477H33.4914C34.4207 102.477 35.1739 101.723 35.1739 100.794V92.3812C35.1741 86.8056 30.6542 82.2859 25.0786 82.2859V82.2859Z" fill="#FFAC47"/>
<path d="M16.29 76.4658H20.4068V85.2002H16.29V76.4658Z" fill="#F2CDBE"/>
<path d="M28.4436 72.1914C28.4436 77.8243 23.8302 82.3798 18.1756 82.2853C12.6402 82.1929 8.25293 77.5612 8.25293 72.0253V62.0961C8.25293 58.3791 11.2661 55.366 14.9831 55.366H21.7134C25.4304 55.366 28.4436 58.3791 28.4436 62.0961V72.1914Z" fill="#F2CDBE"/>
<path d="M28.4436 72.1914C28.4436 77.8243 23.8302 82.3798 18.1756 82.2853C12.6402 82.1929 8.25293 77.5612 8.25293 72.0253V62.0961C8.25293 58.3791 11.2661 55.366 14.9831 55.366H21.7134C25.4304 55.366 28.4436 58.3791 28.4436 62.0961V72.1914Z" fill="#F6E2C1"/>
<path d="M21.7128 55.365H17.0409C20.7579 55.365 23.7711 58.3781 23.7711 62.0951V72.1904C23.7711 76.957 20.4672 80.9512 16.0249 82.0101C16.7163 82.1761 17.435 82.2719 18.1752 82.2843C23.8296 82.3788 28.4429 77.8233 28.4429 72.1904V62.0951C28.4432 58.3783 25.43 55.365 21.7128 55.365Z" fill="#F2D0AC"/>
<path d="M25.0551 52.5664C25.0707 52.3796 25.0786 52.1907 25.0786 51.9999C25.0786 48.2829 22.0655 45.2698 18.3485 45.2698C14.6313 45.2698 11.6182 48.2829 11.6182 51.9999C11.6182 52.1907 11.6261 52.3796 11.6417 52.5664V53.9582H25.0786L25.0551 52.5664Z" fill="#FFE07D"/>
<path d="M25.0788 51.9999C25.0788 48.2829 22.0656 45.2698 18.3486 45.2698C17.5272 45.2698 16.7405 45.4174 16.0127 45.6868C18.5782 46.6364 20.4069 49.1044 20.4069 51.9999C20.4069 52.1907 20.399 52.3796 20.3833 52.5664L20.4069 53.9582H25.0788L25.0552 52.5664C25.0709 52.3796 25.0788 52.1907 25.0788 51.9999Z" fill="#F1CB86"/>
<path d="M21.7138 52H14.9835C9.40792 52 4.88818 56.5199 4.88818 62.0953V63.7778C4.88818 64.7071 5.64157 65.4603 6.57067 65.4603H11.6185C14.6435 65.4603 17.2008 63.4642 18.0489 60.7175C18.0899 60.5847 18.2097 60.492 18.3489 60.492C18.488 60.492 18.6079 60.5847 18.6489 60.7175C19.4967 63.464 22.0543 65.4603 25.0792 65.4603H30.1269C31.0562 65.4603 31.8094 64.7069 31.8094 63.7778V62.0953C31.8092 56.5197 27.2892 52 21.7138 52Z" fill="#FFE07D"/>
<path d="M21.7139 52H17.042C22.6174 52 27.1373 56.5199 27.1373 62.0953V63.7778C27.1373 64.7071 26.3841 65.4603 25.4546 65.4603H30.1265C31.0558 65.4603 31.809 64.7069 31.809 63.7778V62.0953C31.8092 56.5197 27.2892 52 21.7139 52V52Z" fill="#F1CB86"/>
<path d="M22.835 89.016L21.7133 102.477H14.983L13.8613 89.016V82.2859H22.835V89.016Z" fill="#C9DBFD"/>
<path d="M26.1996 89.2104L28.4435 82.8626C27.3907 82.4904 26.2589 82.2859 25.0788 82.2859H18.3486L23.2133 89.5829C23.9823 90.7363 25.7377 90.5173 26.1996 89.2104Z" fill="#EDF6FF"/>
<path d="M8.25342 82.8628L10.4973 89.2107C10.9592 90.5176 12.7149 90.7365 13.4837 89.5832L18.3485 82.2861H11.6182C10.438 82.2861 9.30621 82.4907 8.25342 82.8628V82.8628Z" fill="#EDF6FF"/>
<path d="M14.9839 71.1902C15.8252 71.1902 16.5073 70.5081 16.5073 69.6668V68.8254C16.5073 67.9841 15.8252 67.302 14.9839 67.302C14.1425 67.302 13.4604 67.9841 13.4604 68.8254V69.6668C13.4604 70.5081 14.1423 71.1902 14.9839 71.1902Z" fill="black"/>
<path d="M21.7139 71.1902C22.5552 71.1902 23.2373 70.5081 23.2373 69.6668V68.8254C23.2373 67.9841 22.5552 67.302 21.7139 67.302C20.8725 67.302 20.1904 67.9841 20.1904 68.8254V69.6668C20.1904 70.5081 20.8725 71.1902 21.7139 71.1902Z" fill="black"/>
<path d="M100.852 0H9.87858C8.14247 0 6.73014 1.41233 6.73014 3.14844V6.62858C6.73014 8.36469 8.14247 9.77702 9.87858 9.77702H10.0953V18.667C10.0953 19.5083 10.7774 20.1904 11.6188 20.1904C12.4601 20.1904 13.1422 19.5083 13.1422 18.667V9.77702H97.588V77.2383C97.588 77.326 97.5165 77.3973 97.4289 77.3973H28.6731C29.4982 75.7815 29.9678 73.9542 29.9678 72.0245V66.9839H30.1271C31.8949 66.9839 33.333 65.5458 33.333 63.778V62.0953C33.333 57.4295 30.5673 53.3999 26.5903 51.5531C26.3573 47.2091 22.7502 43.7464 18.3491 43.7464C16.3763 43.7464 14.5637 44.4429 13.1422 45.602V24.7609C13.1422 23.9196 12.4601 23.2375 11.6188 23.2375C10.7774 23.2375 10.0953 23.9196 10.0953 24.7609V51.5588C6.12523 53.4083 3.36517 57.4344 3.36517 62.0953V63.7778C3.36517 65.5456 4.8033 66.9837 6.57109 66.9837H6.73014V72.1906C6.73014 75.3309 7.96331 78.273 10.2024 80.4751C10.3202 80.5909 10.4408 80.7026 10.5627 80.8127C9.61573 80.8984 8.70187 81.0989 7.83352 81.3989C7.80427 81.4074 7.71245 81.4389 7.69559 81.4456C3.21384 83.0584 0 87.3509 0 92.3812V100.794C0 102.562 1.43812 104 3.20592 104H5.20711C6.04845 104 6.73055 103.318 6.73055 102.477C6.73055 101.635 6.04845 100.953 5.20711 100.953H3.20592C3.11817 100.953 3.04688 100.882 3.04688 100.794V92.3812C3.04688 89.1991 4.79111 86.4185 7.37242 84.9398L9.06161 89.7183C9.46888 90.8702 10.475 91.6799 11.6874 91.831C11.8229 91.8478 11.9578 91.8562 12.0916 91.8562C12.2523 91.8562 12.4107 91.8428 12.5671 91.8194L13.3282 100.953H11.3011C10.4597 100.953 9.77763 101.635 9.77763 102.477C9.77763 103.318 10.4597 104 11.3011 104H33.4921C35.2599 104 36.698 102.562 36.698 100.794V92.3812C36.698 87.3509 33.4839 83.0582 29.002 81.4456C28.9851 81.4389 28.8941 81.4076 28.8651 81.3993C27.9746 81.0914 27.0357 80.8893 26.0628 80.8072C26.1932 80.6892 26.3207 80.5681 26.4457 80.4442H97.4289C99.1967 80.4442 100.635 79.0059 100.635 77.2383V9.77702H100.852C102.588 9.77702 104 8.36469 104 6.62858V3.14844C104 1.41233 102.588 0 100.852 0V0ZM21.1955 83.8094H25.0792C25.5472 83.8094 26.0061 83.8486 26.454 83.9211L24.7638 88.7029C24.7532 88.7329 24.7311 88.7955 24.6336 88.8077C24.5359 88.8193 24.4991 88.7646 24.4814 88.738L21.1955 83.8094ZM18.3491 46.7933C20.7334 46.7933 22.7472 48.4049 23.3618 50.5956C22.8233 50.5188 22.2737 50.4768 21.7141 50.4768H14.9839C14.4245 50.4768 13.8749 50.5188 13.3364 50.5956C13.951 48.4049 15.9646 46.7933 18.3491 46.7933V46.7933ZM6.41205 63.7778V62.0953C6.41205 57.3688 10.2574 53.5234 14.9839 53.5234H21.7141C26.4406 53.5234 30.2859 57.3688 30.2859 62.0953V63.7778C30.2859 63.8655 30.2144 63.9368 30.1269 63.9368H25.0792C22.2083 63.9368 19.8725 61.6011 19.8725 58.7301C19.8725 57.8888 19.1904 57.2067 18.3491 57.2067C17.5077 57.2067 16.8257 57.8888 16.8257 58.7301C16.8257 61.6011 14.4899 63.9368 11.619 63.9368H6.57109C6.48355 63.937 6.41205 63.8655 6.41205 63.7778V63.7778ZM9.77702 72.1906V66.9839H11.6188C14.3928 66.9839 16.8519 65.6082 18.3489 63.5032C19.8461 65.6082 22.305 66.9839 25.079 66.9839H26.9206V72.0245C26.9206 76.7644 23.1412 80.6837 18.496 80.7613C16.1763 80.7999 13.9902 79.927 12.3386 78.3027C10.6868 76.6779 9.77702 74.5073 9.77702 72.1906V72.1906ZM12.0646 88.8077C11.9671 88.7955 11.945 88.7329 11.9342 88.7029L10.244 83.9213C10.6919 83.8488 11.1508 83.8096 11.6188 83.8096H15.5025L12.2168 88.7382C12.1991 88.7644 12.1623 88.8199 12.0646 88.8077V88.8077ZM16.3857 100.953L15.4245 89.4189L18.3489 85.0322L21.2735 89.4189L20.3123 100.953H16.3857ZM33.6511 92.3812V100.794C33.6511 100.882 33.5796 100.953 33.4921 100.953H23.3699L24.131 91.8194C24.2873 91.8428 24.4459 91.8562 24.6064 91.8562C24.7402 91.8562 24.8753 91.8478 25.0106 91.831C26.223 91.6797 27.2291 90.8702 27.6364 89.7183L29.3256 84.9398C31.9067 86.4185 33.6511 89.1991 33.6511 92.3812V92.3812ZM100.953 6.62858C100.953 6.68464 100.908 6.73014 100.852 6.73014H9.87858C9.82252 6.73014 9.77702 6.68464 9.77702 6.62858V3.14844C9.77702 3.09238 9.82252 3.04688 9.87858 3.04688H100.852C100.908 3.04688 100.953 3.09238 100.953 3.14844V6.62858Z" fill="black"/>
<path d="M72.1907 31.6262L62.1868 21.6225C60.2808 19.7166 57.1795 19.7166 55.2734 21.6225L38.4481 38.4479C37.5247 39.3711 37.0161 40.5988 37.0161 41.9047C37.0161 43.2106 37.5245 44.4383 38.4479 45.3615C39.3713 46.2849 40.5988 46.7933 41.9045 46.7933C43.2102 46.7933 44.4379 46.2849 45.3613 45.3615L58.7302 31.9928L68.7341 41.9965C70.6398 43.9024 73.7411 43.9026 75.6474 41.9963L85.5467 32.097C85.6042 32.0397 85.6966 32.0306 85.7486 32.0773C86.68 32.9172 87.8873 33.3647 89.1396 33.3314C91.7672 33.2662 93.9049 31.0312 93.9049 28.3494V21.7141C93.9049 19.0184 91.712 16.8257 89.0165 16.8257H82.3814C79.6996 16.8257 77.4646 18.9634 77.3994 21.5908C77.3681 22.8461 77.8136 24.0504 78.6533 24.9816C78.7 25.0336 78.6913 25.1258 78.6338 25.1835L72.1907 31.6262ZM80.7877 27.3378C81.9945 26.1312 82.0508 24.1999 80.9155 22.941C80.6002 22.5914 80.4331 22.1386 80.4448 21.6664C80.4694 20.6771 81.338 19.8726 82.381 19.8726H89.0161C90.0315 19.8726 90.8576 20.6987 90.8576 21.7141V28.3492C90.8576 29.3922 90.0529 30.2608 89.0636 30.2854C88.5891 30.2967 88.1384 30.13 87.7888 29.8145C86.5303 28.6797 84.599 28.7357 83.392 29.9423L73.4925 39.8418C72.7744 40.5598 71.6059 40.5598 70.888 39.842L59.8069 28.7611C59.212 28.1662 58.2473 28.1662 57.6526 28.7611L43.2066 43.2069C42.8586 43.5547 42.3961 43.7464 41.9043 43.7464C41.4126 43.7464 40.95 43.5549 40.6021 43.2069C40.2543 42.8592 40.0628 42.3967 40.0628 41.9047C40.0628 41.4129 40.2543 40.9504 40.6023 40.6025L57.4277 23.777C57.7867 23.4179 58.2583 23.2385 58.73 23.2385C59.2014 23.2385 59.6733 23.4181 60.0322 23.777L71.1133 34.8579C71.7082 35.4529 72.6729 35.4529 73.2676 34.8579L80.7877 27.3378Z" fill="black"/>
<path d="M37.0161 70.5852C37.0161 72.3214 38.4284 73.7337 40.1646 73.7337H90.7563C92.4924 73.7337 93.9047 72.3214 93.9047 70.5852V67.1051C93.9047 65.369 92.4924 63.9567 90.7563 63.9567H88.8571V46.8948C88.8571 45.1587 87.4447 43.7463 85.7086 43.7463H78.8633C77.1272 43.7463 75.7149 45.1587 75.7149 46.8948V63.9567H72.0316V56.995C72.0316 55.2589 70.6193 53.8465 68.8832 53.8465H62.0379C60.3017 53.8465 58.8894 55.2589 58.8894 56.995V63.9567H55.2062V53.6249C55.2062 51.8888 53.7938 50.4765 52.0577 50.4765H45.2124C43.4763 50.4765 42.064 51.8888 42.064 53.6249V63.9565H40.1648C38.4286 63.9565 37.0163 65.3688 37.0163 67.1049V70.5852H37.0161ZM78.7617 46.8948C78.7617 46.8387 78.8072 46.7932 78.8633 46.7932H85.7086C85.7647 46.7932 85.8102 46.8387 85.8102 46.8948V63.9467H78.7617V46.8948ZM61.9363 56.995C61.9363 56.9389 61.9818 56.8934 62.0379 56.8934H68.8832C68.9392 56.8934 68.9847 56.9389 68.9847 56.995V63.9467H61.9363V56.995ZM45.1106 53.6249C45.1106 53.5689 45.1561 53.5234 45.2122 53.5234H52.0575C52.1136 53.5234 52.1591 53.5689 52.1591 53.6249V63.9467H45.1106V53.6249ZM40.063 67.1049C40.063 67.0488 40.1085 67.0033 40.1646 67.0033H90.7563C90.8123 67.0033 90.8578 67.0488 90.8578 67.1049V70.585C90.8578 70.6411 90.8123 70.6866 90.7563 70.6866H40.1646C40.1085 70.6866 40.063 70.6411 40.063 70.585V67.1049Z" fill="black"/>
<path d="M19.9736 26.6027H23.4538C25.1899 26.6027 26.6022 25.1904 26.6022 23.4543V19.9741C26.6022 18.238 25.1899 16.8257 23.4538 16.8257H19.9736C18.2375 16.8257 16.8252 18.238 16.8252 19.9741V23.4543C16.8252 25.1904 18.2375 26.6027 19.9736 26.6027V26.6027ZM19.8721 19.9741C19.8721 19.9181 19.9176 19.8726 19.9736 19.8726H23.4538C23.5098 19.8726 23.5553 19.9181 23.5553 19.9741V23.4543C23.5553 23.5103 23.5098 23.5558 23.4538 23.5558H19.9736C19.9176 23.5558 19.8721 23.5103 19.8721 23.4543V19.9741Z" fill="black"/>
<path d="M16.8252 36.9145C16.8252 38.6506 18.2375 40.0629 19.9736 40.0629H23.4538C25.1899 40.0629 26.6022 38.6506 26.6022 36.9145V33.4343C26.6022 31.6982 25.1899 30.2859 23.4538 30.2859H19.9736C18.2375 30.2859 16.8252 31.6982 16.8252 33.4343V36.9145ZM19.8721 33.4343C19.8721 33.3783 19.9176 33.3328 19.9736 33.3328H23.4538C23.5098 33.3328 23.5553 33.3783 23.5553 33.4343V36.9145C23.5553 36.9705 23.5098 37.016 23.4538 37.016H19.9736C19.9176 37.016 19.8721 36.9705 19.8721 36.9145V33.4343Z" fill="black"/>
</svg>
